<svg xmlns="http://www.w3.org/2000/svg" xmlns:xlink="http://www.w3.org/1999/xlink" width="500" zoomAndPan="magnify" viewBox="0 0 375 374.999991" height="500" preserveAspectRatio="xMidYMid meet" version="1.0"><defs><clipPath id="d1b9c4e6c9"><path d="M 75.015625 144.082031 L 299.855469 144.082031 L 299.855469 230.917969 L 75.015625 230.917969 Z M 75.015625 144.082031 " clip-rule="nonzero"/></clipPath></defs><g clip-path="url(#d1b9c4e6c9)"><path fill="#1800ad" d="M 95.753906 228.621094 L 106.222656 211.765625 L 117.703125 204.695312 L 124.777344 209.289062 C 125.171875 209.539062 125.683594 209.519531 126.0625 209.242188 L 136.253906 202.03125 L 155.222656 214.292969 L 155.496094 214.429688 L 156.230469 214.429688 C 156.5625 214.304688 156.816406 214.035156 156.921875 213.699219 L 168.125 175.765625 L 179.46875 168.785156 L 188.515625 173.839844 C 188.984375 174.105469 189.578125 174.011719 189.9375 173.609375 L 193.933594 169.199219 L 235.03125 220.539062 L 235.214844 220.722656 L 235.308594 220.722656 L 235.492188 220.816406 L 236.132812 220.816406 C 236.535156 220.742188 236.867188 220.460938 237.007812 220.078125 L 242.65625 204.007812 L 251.976562 198.40625 L 259.738281 202.675781 C 260.238281 202.949219 260.867188 202.8125 261.207031 202.355469 L 263.730469 199.1875 L 295.875 228.621094 Z M 100.898438 207.863281 L 103.054688 210.160156 L 103.929688 211.125 L 93.089844 228.621094 L 79.039062 228.621094 Z M 113.113281 196.292969 L 105.214844 209.058594 L 102.597656 206.304688 Z M 108.933594 207.40625 L 119.082031 190.964844 L 132.398438 199.554688 L 134.144531 200.703125 L 125.371094 206.945312 L 118.347656 202.398438 C 117.96875 202.15625 117.484375 202.15625 117.105469 202.398438 Z M 105.398438 212.089844 Z M 105.398438 212.089844 Z M 134.695312 198.3125 L 158.160156 169.015625 L 165.78125 175.355469 L 155.082031 211.492188 L 136.761719 199.644531 Z M 173.269531 150.234375 L 171.753906 155.378906 L 166.5625 172.964844 L 166.152344 172.597656 L 159.675781 167.222656 Z M 176.484375 147.386719 L 192.464844 167.363281 L 188.835938 171.355469 L 180.019531 166.398438 C 179.65625 166.207031 179.21875 166.226562 178.871094 166.445312 L 169.089844 172.460938 Z M 226.855469 206.625 L 234.894531 198.726562 L 240.359375 203.6875 L 235.492188 217.460938 Z M 245.871094 188.027344 L 241.183594 201.34375 L 236.546875 197.164062 Z M 251.332031 196.199219 L 243.847656 200.746094 L 249.128906 185.820312 L 262.078125 197.671875 L 260.011719 200.332031 L 252.527344 196.199219 C 252.160156 195.976562 251.703125 195.976562 251.332031 196.199219 Z M 299.640625 228.941406 L 264.375 196.660156 L 249.359375 182.929688 L 249.21875 182.792969 L 249.128906 182.792969 L 248.898438 182.699219 L 248.300781 182.699219 L 248.074219 182.792969 L 248.027344 182.792969 L 247.84375 182.929688 L 247.796875 182.929688 L 225.386719 204.835938 L 194.851562 166.71875 L 176.894531 144.265625 L 176.710938 144.082031 L 175.792969 144.082031 L 175.519531 144.171875 L 175.472656 144.171875 L 175.242188 144.3125 L 175.152344 144.402344 L 157.148438 166.859375 L 132.8125 197.257812 L 119.402344 188.578125 L 118.210938 188.578125 L 118.070312 188.671875 L 117.933594 188.671875 L 100.164062 205.386719 L 75.367188 228.941406 C 74.910156 229.382812 74.894531 230.109375 75.335938 230.566406 C 75.550781 230.785156 75.839844 230.914062 76.144531 230.917969 L 298.863281 230.917969 C 299.496094 230.910156 300.003906 230.386719 299.992188 229.753906 C 299.988281 229.445312 299.863281 229.15625 299.640625 228.941406 " fill-opacity="1" fill-rule="nonzero"/></g></svg>