<svg xmlns="http://www.w3.org/2000/svg" xmlns:xlink="http://www.w3.org/1999/xlink" width="500" zoomAndPan="magnify" viewBox="0 0 375 374.999991" height="500" preserveAspectRatio="xMidYMid meet" version="1.0"><defs><g/><clipPath id="f17bdc3a44"><path d="M 126.246094 129.757812 L 248.753906 129.757812 L 248.753906 177.007812 L 126.246094 177.007812 Z M 126.246094 129.757812 " clip-rule="nonzero"/></clipPath></defs><g clip-path="url(#f17bdc3a44)"><path fill="#1800ad" d="M 137.539062 175.792969 L 143.242188 166.613281 L 149.492188 162.765625 L 153.34375 165.265625 C 153.558594 165.398438 153.839844 165.390625 154.042969 165.238281 L 159.59375 161.3125 L 169.921875 167.988281 L 170.074219 168.066406 L 170.472656 168.066406 C 170.652344 167.996094 170.789062 167.847656 170.847656 167.664062 L 176.949219 147.011719 L 183.125 143.210938 L 188.050781 145.960938 C 188.308594 146.105469 188.628906 146.054688 188.828125 145.835938 L 191.003906 143.433594 L 213.382812 171.390625 L 213.480469 171.492188 L 213.53125 171.492188 L 213.632812 171.542969 L 213.980469 171.542969 C 214.199219 171.5 214.382812 171.347656 214.457031 171.140625 L 217.535156 162.390625 L 222.609375 159.339844 L 226.835938 161.664062 C 227.109375 161.8125 227.449219 161.738281 227.636719 161.488281 L 229.011719 159.761719 L 246.515625 175.792969 Z M 140.339844 164.488281 L 141.515625 165.738281 L 141.992188 166.265625 L 136.089844 175.792969 L 128.4375 175.792969 Z M 146.992188 158.1875 L 142.691406 165.140625 L 141.265625 163.640625 Z M 144.71875 164.238281 L 150.242188 155.289062 L 157.496094 159.964844 L 158.445312 160.589844 L 153.667969 163.988281 L 149.84375 161.511719 C 149.636719 161.382812 149.375 161.382812 149.167969 161.511719 Z M 142.792969 166.789062 Z M 142.792969 166.789062 Z M 158.746094 159.289062 L 171.523438 143.335938 L 175.671875 146.785156 L 169.847656 166.464844 L 159.871094 160.011719 Z M 179.75 133.105469 L 178.925781 135.910156 L 176.097656 145.484375 L 175.875 145.285156 L 172.347656 142.359375 Z M 181.5 131.558594 L 190.203125 142.433594 L 188.226562 144.609375 L 183.425781 141.910156 C 183.226562 141.804688 182.988281 141.816406 182.800781 141.933594 L 177.472656 145.210938 Z M 208.929688 163.8125 L 213.308594 159.511719 L 216.28125 162.214844 L 213.632812 169.714844 Z M 219.285156 153.6875 L 216.730469 160.9375 L 214.207031 158.664062 Z M 222.257812 158.136719 L 218.183594 160.613281 L 221.058594 152.488281 L 228.109375 158.9375 L 226.984375 160.386719 L 222.910156 158.136719 C 222.710938 158.015625 222.460938 158.015625 222.257812 158.136719 Z M 248.5625 175.96875 L 229.359375 158.386719 L 221.183594 150.910156 L 221.109375 150.835938 L 221.058594 150.835938 L 220.933594 150.785156 L 220.609375 150.785156 L 220.484375 150.835938 L 220.457031 150.835938 L 220.359375 150.910156 L 220.332031 150.910156 L 208.128906 162.839844 L 191.503906 142.085938 L 181.726562 129.855469 L 181.625 129.757812 L 181.125 129.757812 L 180.976562 129.808594 L 180.949219 129.808594 L 180.824219 129.882812 L 180.773438 129.933594 L 170.972656 142.160156 L 157.71875 158.714844 L 150.417969 153.988281 L 149.769531 153.988281 L 149.695312 154.039062 L 149.617188 154.039062 L 139.941406 163.140625 L 126.4375 175.96875 C 126.1875 176.207031 126.183594 176.601562 126.421875 176.851562 C 126.539062 176.972656 126.695312 177.039062 126.863281 177.042969 L 248.140625 177.042969 C 248.484375 177.039062 248.761719 176.753906 248.753906 176.410156 C 248.753906 176.242188 248.683594 176.082031 248.5625 175.96875 " fill-opacity="1" fill-rule="nonzero"/></g><g fill="#1800ad" fill-opacity="1"><g transform="translate(78.289058, 215.143051)"><g><path d="M 1.953125 0 L 1.953125 -1.015625 L 3.09375 -1.015625 C 3.695312 -1.015625 4.175781 -1.238281 4.53125 -1.6875 C 4.894531 -2.132812 5.078125 -2.75 5.078125 -3.53125 L 5.078125 -20.5625 C 5.054688 -21.132812 4.769531 -21.421875 4.21875 -21.421875 L 1.953125 -21.421875 L 1.953125 -22.421875 L 7.90625 -22.421875 L 18.84375 -4.84375 L 18.84375 -18.90625 C 18.84375 -19.695312 18.660156 -20.3125 18.296875 -20.75 C 17.941406 -21.195312 17.472656 -21.421875 16.890625 -21.421875 L 15.75 -21.421875 L 15.75 -22.421875 L 23.25 -22.421875 L 23.25 -21.421875 L 22.109375 -21.421875 C 21.523438 -21.421875 21.039062 -21.195312 20.65625 -20.75 C 20.28125 -20.3125 20.09375 -19.695312 20.09375 -18.90625 L 20.09375 0.5625 L 18.84375 0.5625 L 6.453125 -19 L 6.328125 -19 L 6.328125 -3.53125 C 6.328125 -2.75 6.507812 -2.132812 6.875 -1.6875 C 7.25 -1.238281 7.726562 -1.015625 8.3125 -1.015625 L 9.453125 -1.015625 L 9.453125 0 Z M 1.953125 0 "/></g></g></g><g fill="#1800ad" fill-opacity="1"><g transform="translate(102.544088, 215.143051)"><g><path d="M 4.28125 -7.1875 C 4.28125 -5.84375 4.390625 -4.660156 4.609375 -3.640625 C 4.835938 -2.617188 5.207031 -1.816406 5.71875 -1.234375 C 6.226562 -0.660156 6.925781 -0.375 7.8125 -0.375 C 8.695312 -0.375 9.394531 -0.660156 9.90625 -1.234375 C 10.414062 -1.816406 10.78125 -2.617188 11 -3.640625 C 11.226562 -4.660156 11.34375 -5.84375 11.34375 -7.1875 C 11.34375 -8.53125 11.226562 -9.707031 11 -10.71875 C 10.78125 -11.738281 10.414062 -12.535156 9.90625 -13.109375 C 9.394531 -13.691406 8.695312 -13.984375 7.8125 -13.984375 C 6.925781 -13.984375 6.226562 -13.691406 5.71875 -13.109375 C 5.207031 -12.535156 4.835938 -11.738281 4.609375 -10.71875 C 4.390625 -9.707031 4.28125 -8.53125 4.28125 -7.1875 Z M 1.515625 -7.1875 C 1.515625 -8.570312 1.789062 -9.832031 2.34375 -10.96875 C 2.90625 -12.113281 3.660156 -13.023438 4.609375 -13.703125 C 5.566406 -14.390625 6.632812 -14.734375 7.8125 -14.734375 C 8.988281 -14.734375 10.050781 -14.390625 11 -13.703125 C 11.957031 -13.023438 12.710938 -12.113281 13.265625 -10.96875 C 13.828125 -9.832031 14.109375 -8.570312 14.109375 -7.1875 C 14.109375 -5.800781 13.828125 -4.535156 13.265625 -3.390625 C 12.710938 -2.242188 11.957031 -1.328125 11 -0.640625 C 10.050781 0.0351562 8.988281 0.375 7.8125 0.375 C 6.632812 0.375 5.566406 0.0351562 4.609375 -0.640625 C 3.660156 -1.328125 2.90625 -2.242188 2.34375 -3.390625 C 1.789062 -4.535156 1.515625 -5.800781 1.515625 -7.1875 Z M 1.515625 -7.1875 "/></g></g></g><g fill="#1800ad" fill-opacity="1"><g transform="translate(118.16811, 215.143051)"><g><path d="M 1.203125 0 L 1.203125 -0.75 L 2.515625 -0.75 C 2.984375 -0.75 3.21875 -0.984375 3.21875 -1.453125 L 3.21875 -12.921875 C 3.21875 -13.378906 2.984375 -13.609375 2.515625 -13.609375 L 1.203125 -13.609375 L 1.203125 -14.359375 L 5.484375 -14.359375 L 5.484375 -10.328125 L 5.609375 -10.296875 C 5.835938 -10.867188 6.050781 -11.359375 6.25 -11.765625 C 6.445312 -12.171875 6.707031 -12.609375 7.03125 -13.078125 C 7.363281 -13.554688 7.789062 -13.953125 8.3125 -14.265625 C 8.84375 -14.578125 9.367188 -14.734375 9.890625 -14.734375 C 10.753906 -14.734375 11.367188 -14.457031 11.734375 -13.90625 C 12.097656 -13.351562 12.28125 -12.769531 12.28125 -12.15625 C 12.28125 -11.882812 12.226562 -11.578125 12.125 -11.234375 C 12.019531 -10.898438 11.835938 -10.613281 11.578125 -10.375 C 11.316406 -10.132812 10.960938 -10.015625 10.515625 -10.015625 C 10.140625 -10.015625 9.8125 -10.113281 9.53125 -10.3125 C 9.25 -10.507812 9.109375 -10.8125 9.109375 -11.21875 C 9.109375 -11.820312 9.390625 -12.28125 9.953125 -12.59375 C 10.097656 -12.675781 10.25 -12.800781 10.40625 -12.96875 C 10.5625 -13.144531 10.640625 -13.304688 10.640625 -13.453125 C 10.640625 -13.617188 10.582031 -13.75 10.46875 -13.84375 C 10.351562 -13.9375 10.117188 -13.984375 9.765625 -13.984375 C 9.535156 -13.984375 9.226562 -13.914062 8.84375 -13.78125 C 8.46875 -13.644531 8.0625 -13.300781 7.625 -12.75 C 7.1875 -12.207031 6.742188 -11.316406 6.296875 -10.078125 C 6.066406 -9.410156 5.875 -8.648438 5.71875 -7.796875 C 5.5625 -6.941406 5.484375 -6.210938 5.484375 -5.609375 L 5.484375 -1.453125 C 5.484375 -0.984375 5.710938 -0.75 6.171875 -0.75 L 7.5 -0.75 L 7.5 0 Z M 1.203125 0 "/></g></g></g><g fill="#1800ad" fill-opacity="1"><g transform="translate(131.083121, 215.143051)"><g><path d="M 4.28125 -7.1875 C 4.28125 -5.882812 4.351562 -4.71875 4.5 -3.6875 C 4.644531 -2.65625 4.914062 -1.84375 5.3125 -1.25 C 5.71875 -0.664062 6.28125 -0.375 7 -0.375 C 7.8125 -0.375 8.5 -0.617188 9.0625 -1.109375 C 9.632812 -1.609375 10.070312 -2.238281 10.375 -3 C 10.6875 -3.769531 10.84375 -4.546875 10.84375 -5.328125 L 10.84375 -8.25 C 10.84375 -9.21875 10.65625 -10.132812 10.28125 -11 C 9.914062 -11.875 9.441406 -12.585938 8.859375 -13.140625 C 8.285156 -13.703125 7.664062 -13.984375 7 -13.984375 C 6.28125 -13.984375 5.71875 -13.6875 5.3125 -13.09375 C 4.914062 -12.507812 4.644531 -11.703125 4.5 -10.671875 C 4.351562 -9.648438 4.28125 -8.488281 4.28125 -7.1875 Z M 1.515625 -7.1875 C 1.515625 -8.570312 1.726562 -9.832031 2.15625 -10.96875 C 2.582031 -12.113281 3.203125 -13.023438 4.015625 -13.703125 C 4.828125 -14.390625 5.800781 -14.734375 6.9375 -14.734375 C 7.664062 -14.734375 8.363281 -14.492188 9.03125 -14.015625 C 9.707031 -13.535156 10.242188 -12.957031 10.640625 -12.28125 L 10.84375 -12.34375 L 10.84375 -20.984375 C 10.84375 -21.441406 10.609375 -21.671875 10.140625 -21.671875 L 7.875 -21.671875 L 7.875 -22.421875 L 13.109375 -22.421875 L 13.109375 -1.453125 C 13.109375 -0.984375 13.335938 -0.75 13.796875 -0.75 L 15.4375 -0.75 L 15.4375 0 L 10.84375 0 L 10.84375 -1.328125 L 10.671875 -1.421875 C 10.316406 -0.992188 9.8125 -0.585938 9.15625 -0.203125 C 8.507812 0.179688 7.8125 0.375 7.0625 0.375 C 5.925781 0.375 4.941406 0.0351562 4.109375 -0.640625 C 3.273438 -1.328125 2.632812 -2.242188 2.1875 -3.390625 C 1.738281 -4.535156 1.515625 -5.800781 1.515625 -7.1875 Z M 1.515625 -7.1875 "/></g></g></g><g fill="#1800ad" fill-opacity="1"><g transform="translate(147.526139, 215.143051)"><g><path d="M 1.203125 0 L 1.203125 -0.75 L 2.515625 -0.75 C 2.984375 -0.75 3.21875 -0.984375 3.21875 -1.453125 L 3.21875 -12.921875 C 3.21875 -13.378906 2.984375 -13.609375 2.515625 -13.609375 L 1.203125 -13.609375 L 1.203125 -14.359375 L 5.484375 -14.359375 L 5.484375 -11.59375 L 5.609375 -11.5625 C 6.128906 -12.550781 6.722656 -13.328125 7.390625 -13.890625 C 8.066406 -14.453125 8.828125 -14.734375 9.671875 -14.734375 C 10.296875 -14.734375 10.8125 -14.660156 11.21875 -14.515625 C 11.632812 -14.367188 11.988281 -14.171875 12.28125 -13.921875 C 12.707031 -13.585938 13.015625 -13.179688 13.203125 -12.703125 C 13.390625 -12.234375 13.523438 -11.757812 13.609375 -11.28125 L 13.734375 -11.25 C 13.796875 -11.414062 13.929688 -11.6875 14.140625 -12.0625 C 14.347656 -12.4375 14.625 -12.828125 14.96875 -13.234375 C 15.320312 -13.648438 15.742188 -14.003906 16.234375 -14.296875 C 16.734375 -14.585938 17.296875 -14.734375 17.921875 -14.734375 C 18.554688 -14.734375 19.078125 -14.660156 19.484375 -14.515625 C 19.890625 -14.367188 20.238281 -14.171875 20.53125 -13.921875 C 20.914062 -13.628906 21.210938 -13.242188 21.421875 -12.765625 C 21.628906 -12.296875 21.773438 -11.816406 21.859375 -11.328125 C 21.941406 -10.847656 21.984375 -10.421875 21.984375 -10.046875 L 21.984375 -1.453125 C 21.984375 -0.984375 22.21875 -0.75 22.6875 -0.75 L 24 -0.75 L 24 0 L 17.703125 0 L 17.703125 -0.75 L 19.03125 -0.75 C 19.488281 -0.75 19.71875 -0.984375 19.71875 -1.453125 L 19.71875 -10.671875 C 19.71875 -11.179688 19.660156 -11.691406 19.546875 -12.203125 C 19.429688 -12.722656 19.21875 -13.148438 18.90625 -13.484375 C 18.601562 -13.816406 18.179688 -13.984375 17.640625 -13.984375 C 17.054688 -13.984375 16.460938 -13.710938 15.859375 -13.171875 C 15.265625 -12.640625 14.757812 -11.921875 14.34375 -11.015625 C 13.9375 -10.117188 13.734375 -9.113281 13.734375 -8 L 13.734375 -1.453125 C 13.734375 -0.984375 13.960938 -0.75 14.421875 -0.75 L 15.75 -0.75 L 15.75 0 L 9.453125 0 L 9.453125 -0.75 L 10.765625 -0.75 C 11.234375 -0.75 11.46875 -0.984375 11.46875 -1.453125 L 11.46875 -10.671875 C 11.46875 -11.179688 11.410156 -11.691406 11.296875 -12.203125 C 11.179688 -12.722656 10.96875 -13.148438 10.65625 -13.484375 C 10.351562 -13.816406 9.929688 -13.984375 9.390625 -13.984375 C 8.796875 -13.984375 8.195312 -13.710938 7.59375 -13.171875 C 7 -12.640625 6.5 -11.921875 6.09375 -11.015625 C 5.6875 -10.117188 5.484375 -9.113281 5.484375 -8 L 5.484375 -1.453125 C 5.484375 -0.984375 5.710938 -0.75 6.171875 -0.75 L 7.5 -0.75 L 7.5 0 Z M 1.203125 0 "/></g></g></g><g fill="#1800ad" fill-opacity="1"><g transform="translate(172.537166, 215.143051)"><g><path d="M 4.09375 -3.25 C 4.09375 -2.507812 4.203125 -1.960938 4.421875 -1.609375 C 4.640625 -1.253906 4.90625 -1.019531 5.21875 -0.90625 C 5.539062 -0.800781 5.816406 -0.75 6.046875 -0.75 C 6.765625 -0.75 7.359375 -0.972656 7.828125 -1.421875 C 8.296875 -1.878906 8.675781 -2.410156 8.96875 -3.015625 C 9.269531 -3.628906 9.515625 -4.195312 9.703125 -4.71875 L 9.703125 -7.71875 L 6.96875 -7.125 C 5.9375 -6.90625 5.195312 -6.476562 4.75 -5.84375 C 4.3125 -5.21875 4.09375 -4.351562 4.09375 -3.25 Z M 1.453125 -3.34375 C 1.453125 -4.195312 1.625 -4.894531 1.96875 -5.4375 C 2.3125 -5.988281 2.757812 -6.421875 3.3125 -6.734375 C 3.875 -7.054688 4.460938 -7.296875 5.078125 -7.453125 C 5.703125 -7.609375 6.273438 -7.738281 6.796875 -7.84375 L 9.703125 -8.375 L 9.703125 -11.0625 C 9.703125 -12.164062 9.421875 -12.925781 8.859375 -13.34375 C 8.304688 -13.769531 7.609375 -13.984375 6.765625 -13.984375 C 6.054688 -13.984375 5.40625 -13.804688 4.8125 -13.453125 C 4.226562 -13.097656 3.9375 -12.675781 3.9375 -12.1875 C 3.9375 -12.101562 3.941406 -12.023438 3.953125 -11.953125 C 3.960938 -11.878906 3.988281 -11.800781 4.03125 -11.71875 C 4.113281 -11.550781 4.269531 -11.445312 4.5 -11.40625 C 4.863281 -11.320312 5.148438 -11.179688 5.359375 -10.984375 C 5.566406 -10.796875 5.671875 -10.523438 5.671875 -10.171875 C 5.671875 -9.710938 5.523438 -9.394531 5.234375 -9.21875 C 4.953125 -9.039062 4.632812 -8.953125 4.28125 -8.953125 C 3.882812 -8.953125 3.476562 -9.117188 3.0625 -9.453125 C 2.65625 -9.785156 2.453125 -10.3125 2.453125 -11.03125 C 2.453125 -11.84375 2.675781 -12.519531 3.125 -13.0625 C 3.582031 -13.613281 4.144531 -14.03125 4.8125 -14.3125 C 5.488281 -14.59375 6.171875 -14.734375 6.859375 -14.734375 C 7.660156 -14.734375 8.453125 -14.59375 9.234375 -14.3125 C 10.023438 -14.03125 10.675781 -13.5625 11.1875 -12.90625 C 11.707031 -12.257812 11.96875 -11.378906 11.96875 -10.265625 L 11.96875 -2.515625 C 11.96875 -1.460938 12.296875 -0.9375 12.953125 -0.9375 C 13.328125 -0.9375 13.625 -1.09375 13.84375 -1.40625 C 14.0625 -1.726562 14.210938 -2.128906 14.296875 -2.609375 C 14.378906 -3.097656 14.421875 -3.59375 14.421875 -4.09375 L 15 -4.09375 C 15 -3.425781 14.929688 -2.742188 14.796875 -2.046875 C 14.671875 -1.359375 14.429688 -0.78125 14.078125 -0.3125 C 13.722656 0.144531 13.1875 0.375 12.46875 0.375 C 11.550781 0.375 10.867188 0.0976562 10.421875 -0.453125 C 9.984375 -1.015625 9.742188 -1.742188 9.703125 -2.640625 L 9.546875 -2.703125 C 9.398438 -2.328125 9.140625 -1.894531 8.765625 -1.40625 C 8.398438 -0.925781 7.945312 -0.507812 7.40625 -0.15625 C 6.875 0.195312 6.253906 0.375 5.546875 0.375 C 4.953125 0.375 4.335938 0.28125 3.703125 0.09375 C 3.078125 -0.09375 2.546875 -0.453125 2.109375 -0.984375 C 1.671875 -1.523438 1.453125 -2.3125 1.453125 -3.34375 Z M 1.453125 -3.34375 "/></g></g></g><g fill="#1800ad" fill-opacity="1"><g transform="translate(188.287189, 215.143051)"><g><path d="M 1.203125 0 L 1.203125 -0.75 L 2.515625 -0.75 C 2.984375 -0.75 3.21875 -0.984375 3.21875 -1.453125 L 3.21875 -12.921875 C 3.21875 -13.378906 2.984375 -13.609375 2.515625 -13.609375 L 1.203125 -13.609375 L 1.203125 -14.359375 L 5.484375 -14.359375 L 5.484375 -10.328125 L 5.609375 -10.296875 C 5.835938 -10.867188 6.050781 -11.359375 6.25 -11.765625 C 6.445312 -12.171875 6.707031 -12.609375 7.03125 -13.078125 C 7.363281 -13.554688 7.789062 -13.953125 8.3125 -14.265625 C 8.84375 -14.578125 9.367188 -14.734375 9.890625 -14.734375 C 10.753906 -14.734375 11.367188 -14.457031 11.734375 -13.90625 C 12.097656 -13.351562 12.28125 -12.769531 12.28125 -12.15625 C 12.28125 -11.882812 12.226562 -11.578125 12.125 -11.234375 C 12.019531 -10.898438 11.835938 -10.613281 11.578125 -10.375 C 11.316406 -10.132812 10.960938 -10.015625 10.515625 -10.015625 C 10.140625 -10.015625 9.8125 -10.113281 9.53125 -10.3125 C 9.25 -10.507812 9.109375 -10.8125 9.109375 -11.21875 C 9.109375 -11.820312 9.390625 -12.28125 9.953125 -12.59375 C 10.097656 -12.675781 10.25 -12.800781 10.40625 -12.96875 C 10.5625 -13.144531 10.640625 -13.304688 10.640625 -13.453125 C 10.640625 -13.617188 10.582031 -13.75 10.46875 -13.84375 C 10.351562 -13.9375 10.117188 -13.984375 9.765625 -13.984375 C 9.535156 -13.984375 9.226562 -13.914062 8.84375 -13.78125 C 8.46875 -13.644531 8.0625 -13.300781 7.625 -12.75 C 7.1875 -12.207031 6.742188 -11.316406 6.296875 -10.078125 C 6.066406 -9.410156 5.875 -8.648438 5.71875 -7.796875 C 5.5625 -6.941406 5.484375 -6.210938 5.484375 -5.609375 L 5.484375 -1.453125 C 5.484375 -0.984375 5.710938 -0.75 6.171875 -0.75 L 7.5 -0.75 L 7.5 0 Z M 1.203125 0 "/></g></g></g><g fill="#1800ad" fill-opacity="1"><g transform="translate(201.2022, 215.143051)"><g><path d="M 0.875 0 L 0.875 -0.75 L 2.515625 -0.75 C 2.984375 -0.75 3.21875 -0.984375 3.21875 -1.453125 L 3.21875 -20.984375 C 3.21875 -21.441406 2.984375 -21.671875 2.515625 -21.671875 L 0.875 -21.671875 L 0.875 -22.421875 L 5.484375 -22.421875 L 5.484375 -6.390625 L 9.765625 -11.625 C 9.972656 -11.851562 10.117188 -12.046875 10.203125 -12.203125 C 10.285156 -12.359375 10.328125 -12.550781 10.328125 -12.78125 C 10.328125 -13.082031 10.222656 -13.296875 10.015625 -13.421875 C 9.804688 -13.546875 9.554688 -13.609375 9.265625 -13.609375 L 8.4375 -13.609375 L 8.4375 -14.359375 L 14.875 -14.359375 L 14.875 -13.609375 L 13.859375 -13.609375 C 13.273438 -13.609375 12.757812 -13.453125 12.3125 -13.140625 C 11.875 -12.835938 11.382812 -12.351562 10.84375 -11.6875 L 8.4375 -8.75 L 13.359375 -1.765625 C 13.566406 -1.472656 13.765625 -1.226562 13.953125 -1.03125 C 14.140625 -0.84375 14.425781 -0.75 14.8125 -0.75 L 15.4375 -0.75 L 15.4375 0 L 8.75 0 L 8.75 -0.75 L 9.578125 -0.75 C 9.828125 -0.75 10.03125 -0.789062 10.1875 -0.875 C 10.34375 -0.96875 10.421875 -1.140625 10.421875 -1.390625 C 10.421875 -1.640625 10.382812 -1.84375 10.3125 -2 C 10.238281 -2.15625 10.140625 -2.328125 10.015625 -2.515625 L 6.9375 -6.9375 L 5.484375 -5.171875 L 5.484375 -1.453125 C 5.484375 -0.984375 5.710938 -0.75 6.171875 -0.75 L 7.1875 -0.75 L 7.1875 0 Z M 0.875 0 "/></g></g></g><g fill="#1800ad" fill-opacity="1"><g transform="translate(217.582219, 215.143051)"><g/></g></g><g fill="#1800ad" fill-opacity="1"><g transform="translate(226.402226, 215.143051)"><g><path d="M 1.703125 -4.5625 C 1.703125 -5.257812 1.851562 -5.921875 2.15625 -6.546875 C 2.457031 -7.179688 2.84375 -7.769531 3.3125 -8.3125 C 3.789062 -8.863281 4.285156 -9.351562 4.796875 -9.78125 C 5.316406 -10.207031 5.773438 -10.582031 6.171875 -10.90625 L 7.125 -11.625 L 6.796875 -12.09375 C 6.316406 -12.832031 5.925781 -13.601562 5.625 -14.40625 C 5.320312 -15.21875 5.171875 -15.976562 5.171875 -16.6875 C 5.171875 -17.757812 5.394531 -18.707031 5.84375 -19.53125 C 6.289062 -20.351562 6.882812 -20.992188 7.625 -21.453125 C 8.375 -21.910156 9.171875 -22.140625 10.015625 -22.140625 C 10.898438 -22.140625 11.613281 -21.945312 12.15625 -21.5625 C 12.707031 -21.175781 13.101562 -20.6875 13.34375 -20.09375 C 13.582031 -19.507812 13.703125 -18.898438 13.703125 -18.265625 C 13.703125 -17.410156 13.503906 -16.628906 13.109375 -15.921875 C 12.722656 -15.222656 12.226562 -14.582031 11.625 -14 C 11.03125 -13.425781 10.421875 -12.882812 9.796875 -12.375 L 15.21875 -4.6875 L 15.34375 -4.84375 C 15.84375 -5.457031 16.28125 -6.101562 16.65625 -6.78125 C 17.039062 -7.46875 17.34375 -8.117188 17.5625 -8.734375 C 17.78125 -9.359375 17.890625 -9.867188 17.890625 -10.265625 C 17.890625 -10.671875 17.765625 -10.984375 17.515625 -11.203125 C 17.265625 -11.421875 16.976562 -11.53125 16.65625 -11.53125 L 15.25 -11.53125 L 15.25 -12.53125 L 23.0625 -12.53125 L 23.0625 -11.53125 L 22.078125 -11.53125 C 21.660156 -11.53125 21.207031 -11.445312 20.71875 -11.28125 C 20.238281 -11.113281 19.789062 -10.597656 19.375 -9.734375 C 18.757812 -8.492188 18.242188 -7.503906 17.828125 -6.765625 C 17.410156 -6.035156 17.046875 -5.445312 16.734375 -5 C 16.429688 -4.5625 16.132812 -4.164062 15.84375 -3.8125 C 16.519531 -2.90625 17.125 -2.175781 17.65625 -1.625 C 18.1875 -1.082031 18.71875 -0.8125 19.25 -0.8125 C 19.832031 -0.8125 20.316406 -0.9375 20.703125 -1.1875 C 21.097656 -1.445312 21.421875 -1.765625 21.671875 -2.140625 C 21.921875 -2.515625 22.128906 -2.875 22.296875 -3.21875 L 22.8125 -2.96875 C 22.632812 -2.601562 22.378906 -2.132812 22.046875 -1.5625 C 21.710938 -1 21.257812 -0.503906 20.6875 -0.078125 C 20.125 0.347656 19.398438 0.5625 18.515625 0.5625 C 17.679688 0.5625 16.890625 0.316406 16.140625 -0.171875 C 15.398438 -0.660156 14.703125 -1.265625 14.046875 -1.984375 C 13.273438 -1.304688 12.359375 -0.710938 11.296875 -0.203125 C 10.234375 0.304688 9.082031 0.5625 7.84375 0.5625 C 6 0.5625 4.515625 0.144531 3.390625 -0.6875 C 2.265625 -1.53125 1.703125 -2.820312 1.703125 -4.5625 Z M 4.71875 -4.8125 C 4.71875 -3.769531 4.90625 -2.921875 5.28125 -2.265625 C 5.664062 -1.617188 6.128906 -1.140625 6.671875 -0.828125 C 7.222656 -0.523438 7.738281 -0.375 8.21875 -0.375 C 9.25 -0.375 10.1875 -0.601562 11.03125 -1.0625 C 11.882812 -1.53125 12.671875 -2.085938 13.390625 -2.734375 L 12.828125 -3.46875 L 7.75 -10.734375 L 7.4375 -10.484375 C 7.007812 -10.148438 6.585938 -9.734375 6.171875 -9.234375 C 5.753906 -8.742188 5.40625 -8.132812 5.125 -7.40625 C 4.851562 -6.6875 4.71875 -5.820312 4.71875 -4.8125 Z M 7.1875 -17.640625 C 7.1875 -17.140625 7.285156 -16.625 7.484375 -16.09375 C 7.679688 -15.570312 7.914062 -15.097656 8.1875 -14.671875 C 8.457031 -14.253906 8.675781 -13.929688 8.84375 -13.703125 L 9.171875 -13.296875 C 9.609375 -13.628906 10.085938 -14.03125 10.609375 -14.5 C 11.140625 -14.976562 11.597656 -15.539062 11.984375 -16.1875 C 12.367188 -16.84375 12.5625 -17.597656 12.5625 -18.453125 C 12.5625 -19.191406 12.328125 -19.832031 11.859375 -20.375 C 11.390625 -20.925781 10.785156 -21.203125 10.046875 -21.203125 C 9.160156 -21.203125 8.460938 -20.867188 7.953125 -20.203125 C 7.441406 -19.546875 7.1875 -18.691406 7.1875 -17.640625 Z M 7.1875 -17.640625 "/></g></g></g><g fill="#1800ad" fill-opacity="1"><g transform="translate(251.161253, 215.143051)"><g/></g></g><g fill="#1800ad" fill-opacity="1"><g transform="translate(259.98126, 215.143051)"><g><path d="M 2.203125 -11.40625 C 2.203125 -12.976562 2.398438 -14.460938 2.796875 -15.859375 C 3.203125 -17.253906 3.78125 -18.488281 4.53125 -19.5625 C 5.289062 -20.632812 6.21875 -21.472656 7.3125 -22.078125 C 8.40625 -22.691406 9.644531 -23 11.03125 -23 C 11.820312 -23 12.566406 -22.828125 13.265625 -22.484375 C 13.972656 -22.148438 14.53125 -21.835938 14.9375 -21.546875 C 15.269531 -21.316406 15.539062 -21.117188 15.75 -20.953125 C 16.0625 -20.648438 16.351562 -20.5 16.625 -20.5 C 16.800781 -20.5 16.929688 -20.554688 17.015625 -20.671875 C 17.097656 -20.796875 17.179688 -20.972656 17.265625 -21.203125 L 17.796875 -22.75 L 18.578125 -22.75 L 18.578125 -13.984375 L 17.796875 -13.984375 C 17.316406 -15.765625 16.703125 -17.25 15.953125 -18.4375 C 15.210938 -19.625 14.414062 -20.507812 13.5625 -21.09375 C 12.707031 -21.6875 11.863281 -21.984375 11.03125 -21.984375 C 9.507812 -21.984375 8.351562 -21.546875 7.5625 -20.671875 C 6.78125 -19.804688 6.25 -18.578125 5.96875 -16.984375 C 5.6875 -15.398438 5.546875 -13.539062 5.546875 -11.40625 C 5.546875 -9.257812 5.707031 -7.363281 6.03125 -5.71875 C 6.351562 -4.070312 6.945312 -2.78125 7.8125 -1.84375 C 8.675781 -0.90625 9.914062 -0.4375 11.53125 -0.4375 C 12.625 -0.4375 13.5625 -0.65625 14.34375 -1.09375 C 15.132812 -1.539062 15.78125 -2.132812 16.28125 -2.875 C 16.789062 -3.625 17.179688 -4.453125 17.453125 -5.359375 C 17.722656 -6.273438 17.890625 -7.207031 17.953125 -8.15625 L 19.09375 -8.15625 C 19.070312 -7.570312 18.984375 -6.894531 18.828125 -6.125 C 18.679688 -5.363281 18.441406 -4.59375 18.109375 -3.8125 C 17.773438 -3.03125 17.320312 -2.304688 16.75 -1.640625 C 16.1875 -0.984375 15.476562 -0.453125 14.625 -0.046875 C 13.78125 0.359375 12.75 0.5625 11.53125 0.5625 C 10 0.5625 8.65625 0.222656 7.5 -0.453125 C 6.34375 -1.140625 5.367188 -2.050781 4.578125 -3.1875 C 3.796875 -4.332031 3.203125 -5.617188 2.796875 -7.046875 C 2.398438 -8.484375 2.203125 -9.9375 2.203125 -11.40625 Z M 2.203125 -11.40625 "/></g></g></g><g fill="#1800ad" fill-opacity="1"><g transform="translate(281.08627, 215.143051)"><g><path d="M 4.28125 -7.1875 C 4.28125 -5.84375 4.390625 -4.660156 4.609375 -3.640625 C 4.835938 -2.617188 5.207031 -1.816406 5.71875 -1.234375 C 6.226562 -0.660156 6.925781 -0.375 7.8125 -0.375 C 8.695312 -0.375 9.394531 -0.660156 9.90625 -1.234375 C 10.414062 -1.816406 10.78125 -2.617188 11 -3.640625 C 11.226562 -4.660156 11.34375 -5.84375 11.34375 -7.1875 C 11.34375 -8.53125 11.226562 -9.707031 11 -10.71875 C 10.78125 -11.738281 10.414062 -12.535156 9.90625 -13.109375 C 9.394531 -13.691406 8.695312 -13.984375 7.8125 -13.984375 C 6.925781 -13.984375 6.226562 -13.691406 5.71875 -13.109375 C 5.207031 -12.535156 4.835938 -11.738281 4.609375 -10.71875 C 4.390625 -9.707031 4.28125 -8.53125 4.28125 -7.1875 Z M 1.515625 -7.1875 C 1.515625 -8.570312 1.789062 -9.832031 2.34375 -10.96875 C 2.90625 -12.113281 3.660156 -13.023438 4.609375 -13.703125 C 5.566406 -14.390625 6.632812 -14.734375 7.8125 -14.734375 C 8.988281 -14.734375 10.050781 -14.390625 11 -13.703125 C 11.957031 -13.023438 12.710938 -12.113281 13.265625 -10.96875 C 13.828125 -9.832031 14.109375 -8.570312 14.109375 -7.1875 C 14.109375 -5.800781 13.828125 -4.535156 13.265625 -3.390625 C 12.710938 -2.242188 11.957031 -1.328125 11 -0.640625 C 10.050781 0.0351562 8.988281 0.375 7.8125 0.375 C 6.632812 0.375 5.566406 0.0351562 4.609375 -0.640625 C 3.660156 -1.328125 2.90625 -2.242188 2.34375 -3.390625 C 1.789062 -4.535156 1.515625 -5.800781 1.515625 -7.1875 Z M 1.515625 -7.1875 "/></g></g></g><g fill="#1800ad" fill-opacity="1"><g transform="translate(159.289052, 242.493032)"><g><path d="M 0.625 0 L 0.625 -0.3125 L 1.34375 -0.3125 C 1.519531 -0.3125 1.609375 -0.40625 1.609375 -0.59375 L 1.609375 -6.53125 C 1.609375 -6.707031 1.519531 -6.796875 1.34375 -6.796875 L 0.625 -6.796875 L 0.625 -7.125 L 6.203125 -7.125 L 6.234375 -4.859375 L 5.984375 -4.859375 C 5.984375 -4.859375 5.976562 -4.929688 5.96875 -5.078125 C 5.957031 -5.222656 5.921875 -5.398438 5.859375 -5.609375 C 5.804688 -5.816406 5.710938 -6.019531 5.578125 -6.21875 C 5.421875 -6.445312 5.234375 -6.597656 5.015625 -6.671875 C 4.804688 -6.753906 4.601562 -6.796875 4.40625 -6.796875 L 2.796875 -6.796875 C 2.617188 -6.796875 2.53125 -6.707031 2.53125 -6.53125 L 2.53125 -3.796875 L 3.40625 -3.796875 C 3.664062 -3.796875 3.851562 -3.867188 3.96875 -4.015625 C 4.082031 -4.171875 4.15625 -4.351562 4.1875 -4.5625 C 4.21875 -4.78125 4.234375 -4.988281 4.234375 -5.1875 L 4.484375 -5.1875 L 4.484375 -2.046875 L 4.234375 -2.046875 C 4.234375 -2.242188 4.21875 -2.445312 4.1875 -2.65625 C 4.15625 -2.875 4.082031 -3.054688 3.96875 -3.203125 C 3.851562 -3.359375 3.664062 -3.4375 3.40625 -3.4375 L 2.53125 -3.4375 L 2.53125 -0.59375 C 2.53125 -0.40625 2.617188 -0.3125 2.796875 -0.3125 L 4.40625 -0.3125 C 4.550781 -0.3125 4.734375 -0.347656 4.953125 -0.421875 C 5.171875 -0.503906 5.351562 -0.640625 5.5 -0.828125 C 5.613281 -0.984375 5.707031 -1.164062 5.78125 -1.375 C 5.863281 -1.582031 5.921875 -1.785156 5.953125 -1.984375 C 5.992188 -2.191406 6.019531 -2.359375 6.03125 -2.484375 C 6.050781 -2.617188 6.0625 -2.6875 6.0625 -2.6875 L 6.3125 -2.6875 L 6.203125 0 Z M 0.625 0 "/></g></g></g><g fill="#1800ad" fill-opacity="1"><g transform="translate(166.186326, 242.493032)"><g><path d="M 0.71875 -4.4375 L 0.796875 -7.125 L 6.546875 -7.125 L 6.625 -4.4375 L 6.375 -4.4375 C 6.375 -4.4375 6.367188 -4.5 6.359375 -4.625 C 6.347656 -4.757812 6.320312 -4.925781 6.28125 -5.125 C 6.25 -5.320312 6.195312 -5.523438 6.125 -5.734375 C 6.0625 -5.941406 5.96875 -6.125 5.84375 -6.28125 C 5.8125 -6.332031 5.75 -6.398438 5.65625 -6.484375 C 5.5625 -6.566406 5.445312 -6.640625 5.3125 -6.703125 C 5.1875 -6.765625 5.035156 -6.796875 4.859375 -6.796875 L 4.40625 -6.796875 C 4.21875 -6.796875 4.125 -6.707031 4.125 -6.53125 L 4.125 -0.59375 C 4.125 -0.40625 4.21875 -0.3125 4.40625 -0.3125 L 5.359375 -0.3125 L 5.359375 0 L 1.984375 0 L 1.984375 -0.3125 L 2.9375 -0.3125 C 3.113281 -0.3125 3.203125 -0.40625 3.203125 -0.59375 L 3.203125 -6.53125 C 3.203125 -6.707031 3.113281 -6.796875 2.9375 -6.796875 L 2.484375 -6.796875 C 2.304688 -6.796875 2.148438 -6.765625 2.015625 -6.703125 C 1.878906 -6.640625 1.765625 -6.566406 1.671875 -6.484375 C 1.585938 -6.398438 1.523438 -6.332031 1.484375 -6.28125 C 1.367188 -6.125 1.273438 -5.941406 1.203125 -5.734375 C 1.128906 -5.523438 1.078125 -5.320312 1.046875 -5.125 C 1.015625 -4.925781 0.992188 -4.757812 0.984375 -4.625 C 0.972656 -4.5 0.96875 -4.4375 0.96875 -4.4375 Z M 0.71875 -4.4375 "/></g></g></g><g fill="#1800ad" fill-opacity="1"><g transform="translate(173.323514, 242.493032)"><g><path d="M 2.53125 -0.59375 C 2.53125 -0.40625 2.617188 -0.3125 2.796875 -0.3125 L 3.875 -0.3125 C 4.113281 -0.3125 4.335938 -0.359375 4.546875 -0.453125 C 4.765625 -0.546875 4.941406 -0.707031 5.078125 -0.9375 C 5.210938 -1.175781 5.28125 -1.507812 5.28125 -1.9375 C 5.28125 -2.375 5.210938 -2.707031 5.078125 -2.9375 C 4.941406 -3.175781 4.765625 -3.335938 4.546875 -3.421875 C 4.335938 -3.515625 4.113281 -3.5625 3.875 -3.5625 L 2.53125 -3.5625 Z M 0.625 0 L 0.625 -0.3125 L 1.34375 -0.3125 C 1.519531 -0.3125 1.609375 -0.40625 1.609375 -0.59375 L 1.609375 -6.53125 C 1.609375 -6.707031 1.519531 -6.796875 1.34375 -6.796875 L 0.625 -6.796875 L 0.625 -7.125 L 3.875 -7.125 C 4.28125 -7.125 4.648438 -7.050781 4.984375 -6.90625 C 5.328125 -6.757812 5.601562 -6.554688 5.8125 -6.296875 C 6.019531 -6.046875 6.125 -5.753906 6.125 -5.421875 C 6.125 -5.097656 6.046875 -4.816406 5.890625 -4.578125 C 5.734375 -4.347656 5.535156 -4.160156 5.296875 -4.015625 C 5.066406 -3.878906 4.832031 -3.785156 4.59375 -3.734375 L 4.59375 -3.6875 C 4.851562 -3.664062 5.117188 -3.582031 5.390625 -3.4375 C 5.660156 -3.289062 5.882812 -3.085938 6.0625 -2.828125 C 6.25 -2.578125 6.34375 -2.28125 6.34375 -1.9375 C 6.34375 -1.519531 6.234375 -1.164062 6.015625 -0.875 C 5.796875 -0.582031 5.507812 -0.363281 5.15625 -0.21875 C 4.800781 -0.0703125 4.410156 0 3.984375 0 Z M 2.53125 -3.875 L 3.84375 -3.875 C 4.238281 -3.875 4.535156 -3.945312 4.734375 -4.09375 C 4.929688 -4.238281 5.0625 -4.425781 5.125 -4.65625 C 5.195312 -4.894531 5.234375 -5.148438 5.234375 -5.421875 C 5.234375 -5.691406 5.171875 -5.929688 5.046875 -6.140625 C 4.929688 -6.347656 4.773438 -6.507812 4.578125 -6.625 C 4.390625 -6.738281 4.171875 -6.796875 3.921875 -6.796875 L 2.796875 -6.796875 C 2.617188 -6.796875 2.53125 -6.707031 2.53125 -6.53125 Z M 2.53125 -3.875 "/></g></g></g><g fill="#1800ad" fill-opacity="1"><g transform="translate(180.220787, 242.493032)"><g><path d="M 0.625 0 L 0.625 -0.3125 L 1.34375 -0.3125 C 1.519531 -0.3125 1.609375 -0.40625 1.609375 -0.59375 L 1.609375 -6.53125 C 1.609375 -6.707031 1.519531 -6.796875 1.34375 -6.796875 L 0.625 -6.796875 L 0.625 -7.125 L 3.6875 -7.125 L 3.6875 -6.796875 L 2.796875 -6.796875 C 2.617188 -6.796875 2.53125 -6.707031 2.53125 -6.53125 L 2.53125 -0.59375 C 2.53125 -0.40625 2.617188 -0.3125 2.796875 -0.3125 L 4.203125 -0.3125 C 4.347656 -0.3125 4.53125 -0.347656 4.75 -0.421875 C 4.96875 -0.503906 5.148438 -0.644531 5.296875 -0.84375 C 5.410156 -0.988281 5.503906 -1.164062 5.578125 -1.375 C 5.660156 -1.59375 5.71875 -1.800781 5.75 -2 C 5.789062 -2.195312 5.820312 -2.359375 5.84375 -2.484375 C 5.863281 -2.617188 5.875 -2.6875 5.875 -2.6875 L 6.125 -2.6875 L 5.984375 0 Z M 0.625 0 "/></g></g></g><g fill="#1800ad" fill-opacity="1"><g transform="translate(186.918144, 242.493032)"><g><path d="M 0.78125 -0.5 C 0.78125 -0.675781 0.835938 -0.820312 0.953125 -0.9375 C 1.066406 -1.0625 1.21875 -1.125 1.40625 -1.125 C 1.582031 -1.125 1.726562 -1.0625 1.84375 -0.9375 C 1.957031 -0.820312 2.015625 -0.675781 2.015625 -0.5 C 2.015625 -0.320312 1.957031 -0.171875 1.84375 -0.046875 C 1.726562 0.0664062 1.582031 0.125 1.40625 0.125 C 1.21875 0.125 1.066406 0.0664062 0.953125 -0.046875 C 0.835938 -0.171875 0.78125 -0.320312 0.78125 -0.5 Z M 0.78125 -0.5 "/></g></g></g><g fill="#1800ad" fill-opacity="1"><g transform="translate(189.717037, 242.493032)"><g/></g></g><g fill="#1800ad" fill-opacity="1"><g transform="translate(192.515929, 242.493032)"><g><path d="M 0.734375 -5.203125 C 0.734375 -5.554688 0.816406 -5.863281 0.984375 -6.125 C 1.160156 -6.394531 1.398438 -6.609375 1.703125 -6.765625 C 2.003906 -6.921875 2.34375 -7 2.71875 -7 C 3.144531 -7 3.523438 -6.921875 3.859375 -6.765625 C 4.203125 -6.609375 4.46875 -6.378906 4.65625 -6.078125 C 4.851562 -5.785156 4.953125 -5.429688 4.953125 -5.015625 C 4.953125 -4.703125 4.867188 -4.414062 4.703125 -4.15625 C 4.535156 -3.894531 4.332031 -3.660156 4.09375 -3.453125 C 3.851562 -3.253906 3.625 -3.078125 3.40625 -2.921875 L 2.421875 -2.15625 C 2.171875 -1.988281 1.960938 -1.8125 1.796875 -1.625 C 1.628906 -1.445312 1.546875 -1.257812 1.546875 -1.0625 C 1.546875 -0.957031 1.578125 -0.890625 1.640625 -0.859375 C 1.710938 -0.828125 1.785156 -0.8125 1.859375 -0.8125 L 3.75 -0.8125 C 4.039062 -0.8125 4.234375 -0.878906 4.328125 -1.015625 C 4.429688 -1.148438 4.503906 -1.304688 4.546875 -1.484375 L 4.65625 -2.078125 L 4.875 -2.078125 L 4.734375 0 L 0.828125 0 C 0.828125 -0.164062 0.84375 -0.363281 0.875 -0.59375 C 0.914062 -0.820312 1.019531 -1.078125 1.1875 -1.359375 C 1.351562 -1.640625 1.617188 -1.9375 1.984375 -2.25 L 2.9375 -3.0625 C 3.226562 -3.3125 3.460938 -3.59375 3.640625 -3.90625 C 3.816406 -4.21875 3.90625 -4.585938 3.90625 -5.015625 C 3.90625 -5.535156 3.773438 -5.9375 3.515625 -6.21875 C 3.265625 -6.5 2.90625 -6.640625 2.4375 -6.640625 C 2.226562 -6.640625 2.023438 -6.585938 1.828125 -6.484375 C 1.628906 -6.390625 1.46875 -6.257812 1.34375 -6.09375 C 1.21875 -5.9375 1.15625 -5.769531 1.15625 -5.59375 C 1.15625 -5.414062 1.195312 -5.289062 1.28125 -5.21875 C 1.363281 -5.15625 1.457031 -5.113281 1.5625 -5.09375 C 1.789062 -5.0625 1.953125 -4.984375 2.046875 -4.859375 C 2.148438 -4.742188 2.203125 -4.617188 2.203125 -4.484375 C 2.203125 -4.359375 2.15625 -4.25 2.0625 -4.15625 C 1.976562 -4.070312 1.851562 -4.03125 1.6875 -4.03125 C 1.425781 -4.03125 1.203125 -4.132812 1.015625 -4.34375 C 0.828125 -4.5625 0.734375 -4.847656 0.734375 -5.203125 Z M 0.734375 -5.203125 "/></g></g></g><g fill="#1800ad" fill-opacity="1"><g transform="translate(198.313643, 242.493032)"><g><path d="M 1.546875 -3.421875 C 1.546875 -3.160156 1.550781 -2.878906 1.5625 -2.578125 C 1.570312 -2.285156 1.601562 -1.992188 1.65625 -1.703125 C 1.707031 -1.421875 1.78125 -1.160156 1.875 -0.921875 C 1.96875 -0.691406 2.097656 -0.503906 2.265625 -0.359375 C 2.429688 -0.222656 2.644531 -0.15625 2.90625 -0.15625 C 3.15625 -0.15625 3.359375 -0.222656 3.515625 -0.359375 C 3.679688 -0.503906 3.8125 -0.691406 3.90625 -0.921875 C 4.007812 -1.160156 4.082031 -1.421875 4.125 -1.703125 C 4.175781 -1.992188 4.210938 -2.285156 4.234375 -2.578125 C 4.253906 -2.878906 4.265625 -3.160156 4.265625 -3.421875 C 4.265625 -3.679688 4.253906 -3.957031 4.234375 -4.25 C 4.210938 -4.550781 4.175781 -4.84375 4.125 -5.125 C 4.082031 -5.414062 4.007812 -5.675781 3.90625 -5.90625 C 3.8125 -6.144531 3.679688 -6.332031 3.515625 -6.46875 C 3.359375 -6.613281 3.15625 -6.6875 2.90625 -6.6875 C 2.644531 -6.6875 2.429688 -6.613281 2.265625 -6.46875 C 2.097656 -6.332031 1.96875 -6.144531 1.875 -5.90625 C 1.78125 -5.675781 1.707031 -5.414062 1.65625 -5.125 C 1.601562 -4.84375 1.570312 -4.550781 1.5625 -4.25 C 1.550781 -3.957031 1.546875 -3.679688 1.546875 -3.421875 Z M 0.484375 -3.421875 C 0.484375 -3.867188 0.535156 -4.304688 0.640625 -4.734375 C 0.753906 -5.160156 0.914062 -5.546875 1.125 -5.890625 C 1.34375 -6.234375 1.597656 -6.503906 1.890625 -6.703125 C 2.191406 -6.898438 2.53125 -7 2.90625 -7 C 3.269531 -7 3.597656 -6.898438 3.890625 -6.703125 C 4.191406 -6.503906 4.445312 -6.234375 4.65625 -5.890625 C 4.875 -5.546875 5.035156 -5.160156 5.140625 -4.734375 C 5.253906 -4.304688 5.3125 -3.867188 5.3125 -3.421875 C 5.3125 -2.972656 5.253906 -2.535156 5.140625 -2.109375 C 5.035156 -1.679688 4.875 -1.296875 4.65625 -0.953125 C 4.445312 -0.617188 4.191406 -0.347656 3.890625 -0.140625 C 3.597656 0.0546875 3.269531 0.15625 2.90625 0.15625 C 2.53125 0.15625 2.191406 0.0546875 1.890625 -0.140625 C 1.597656 -0.347656 1.34375 -0.617188 1.125 -0.953125 C 0.914062 -1.296875 0.753906 -1.679688 0.640625 -2.109375 C 0.535156 -2.535156 0.484375 -2.972656 0.484375 -3.421875 Z M 0.484375 -3.421875 "/></g></g></g><g fill="#1800ad" fill-opacity="1"><g transform="translate(204.111357, 242.493032)"><g><path d="M 0.734375 -5.203125 C 0.734375 -5.554688 0.816406 -5.863281 0.984375 -6.125 C 1.160156 -6.394531 1.398438 -6.609375 1.703125 -6.765625 C 2.003906 -6.921875 2.34375 -7 2.71875 -7 C 3.144531 -7 3.523438 -6.921875 3.859375 -6.765625 C 4.203125 -6.609375 4.46875 -6.378906 4.65625 -6.078125 C 4.851562 -5.785156 4.953125 -5.429688 4.953125 -5.015625 C 4.953125 -4.703125 4.867188 -4.414062 4.703125 -4.15625 C 4.535156 -3.894531 4.332031 -3.660156 4.09375 -3.453125 C 3.851562 -3.253906 3.625 -3.078125 3.40625 -2.921875 L 2.421875 -2.15625 C 2.171875 -1.988281 1.960938 -1.8125 1.796875 -1.625 C 1.628906 -1.445312 1.546875 -1.257812 1.546875 -1.0625 C 1.546875 -0.957031 1.578125 -0.890625 1.640625 -0.859375 C 1.710938 -0.828125 1.785156 -0.8125 1.859375 -0.8125 L 3.75 -0.8125 C 4.039062 -0.8125 4.234375 -0.878906 4.328125 -1.015625 C 4.429688 -1.148438 4.503906 -1.304688 4.546875 -1.484375 L 4.65625 -2.078125 L 4.875 -2.078125 L 4.734375 0 L 0.828125 0 C 0.828125 -0.164062 0.84375 -0.363281 0.875 -0.59375 C 0.914062 -0.820312 1.019531 -1.078125 1.1875 -1.359375 C 1.351562 -1.640625 1.617188 -1.9375 1.984375 -2.25 L 2.9375 -3.0625 C 3.226562 -3.3125 3.460938 -3.59375 3.640625 -3.90625 C 3.816406 -4.21875 3.90625 -4.585938 3.90625 -5.015625 C 3.90625 -5.535156 3.773438 -5.9375 3.515625 -6.21875 C 3.265625 -6.5 2.90625 -6.640625 2.4375 -6.640625 C 2.226562 -6.640625 2.023438 -6.585938 1.828125 -6.484375 C 1.628906 -6.390625 1.46875 -6.257812 1.34375 -6.09375 C 1.21875 -5.9375 1.15625 -5.769531 1.15625 -5.59375 C 1.15625 -5.414062 1.195312 -5.289062 1.28125 -5.21875 C 1.363281 -5.15625 1.457031 -5.113281 1.5625 -5.09375 C 1.789062 -5.0625 1.953125 -4.984375 2.046875 -4.859375 C 2.148438 -4.742188 2.203125 -4.617188 2.203125 -4.484375 C 2.203125 -4.359375 2.15625 -4.25 2.0625 -4.15625 C 1.976562 -4.070312 1.851562 -4.03125 1.6875 -4.03125 C 1.425781 -4.03125 1.203125 -4.132812 1.015625 -4.34375 C 0.828125 -4.5625 0.734375 -4.847656 0.734375 -5.203125 Z M 0.734375 -5.203125 "/></g></g></g><g fill="#1800ad" fill-opacity="1"><g transform="translate(209.909071, 242.493032)"><g><path d="M 0.859375 -1.3125 C 0.859375 -1.644531 0.941406 -1.890625 1.109375 -2.046875 C 1.285156 -2.203125 1.46875 -2.28125 1.65625 -2.28125 C 1.851562 -2.28125 2 -2.222656 2.09375 -2.109375 C 2.1875 -1.992188 2.234375 -1.859375 2.234375 -1.703125 C 2.234375 -1.578125 2.195312 -1.46875 2.125 -1.375 C 2.0625 -1.28125 1.976562 -1.210938 1.875 -1.171875 C 1.800781 -1.140625 1.734375 -1.097656 1.671875 -1.046875 C 1.609375 -1.003906 1.578125 -0.9375 1.578125 -0.84375 C 1.578125 -0.644531 1.65625 -0.476562 1.8125 -0.34375 C 1.96875 -0.21875 2.257812 -0.15625 2.6875 -0.15625 C 3.03125 -0.15625 3.300781 -0.265625 3.5 -0.484375 C 3.707031 -0.703125 3.851562 -0.984375 3.9375 -1.328125 C 4.03125 -1.671875 4.078125 -2.035156 4.078125 -2.421875 C 4.078125 -3.003906 3.972656 -3.460938 3.765625 -3.796875 C 3.566406 -4.140625 3.21875 -4.3125 2.71875 -4.3125 C 2.53125 -4.3125 2.363281 -4.285156 2.21875 -4.234375 C 2.082031 -4.179688 1.941406 -4.082031 1.796875 -3.9375 C 1.722656 -3.851562 1.664062 -3.753906 1.625 -3.640625 C 1.582031 -3.535156 1.5625 -3.445312 1.5625 -3.375 C 1.5625 -3.3125 1.539062 -3.253906 1.5 -3.203125 C 1.46875 -3.148438 1.421875 -3.125 1.359375 -3.125 C 1.316406 -3.125 1.28125 -3.140625 1.25 -3.171875 C 1.21875 -3.210938 1.203125 -3.28125 1.203125 -3.375 L 1.203125 -6.828125 L 1.421875 -7 C 1.554688 -6.875 1.757812 -6.769531 2.03125 -6.6875 C 2.3125 -6.613281 2.566406 -6.578125 2.796875 -6.578125 C 3.085938 -6.578125 3.363281 -6.601562 3.625 -6.65625 C 3.894531 -6.71875 4.171875 -6.832031 4.453125 -7 L 4.578125 -6.859375 C 4.347656 -6.566406 4.0625 -6.316406 3.71875 -6.109375 C 3.375 -5.910156 2.992188 -5.8125 2.578125 -5.8125 C 2.328125 -5.8125 2.128906 -5.828125 1.984375 -5.859375 C 1.835938 -5.898438 1.695312 -5.953125 1.5625 -6.015625 L 1.5625 -4.109375 L 1.625 -4.09375 C 1.789062 -4.28125 1.988281 -4.425781 2.21875 -4.53125 C 2.445312 -4.632812 2.679688 -4.6875 2.921875 -4.6875 C 3.398438 -4.6875 3.800781 -4.585938 4.125 -4.390625 C 4.457031 -4.191406 4.707031 -3.921875 4.875 -3.578125 C 5.050781 -3.242188 5.140625 -2.859375 5.140625 -2.421875 C 5.140625 -1.921875 5.023438 -1.476562 4.796875 -1.09375 C 4.578125 -0.707031 4.28125 -0.398438 3.90625 -0.171875 C 3.53125 0.046875 3.125 0.15625 2.6875 0.15625 C 2.113281 0.15625 1.664062 0.015625 1.34375 -0.265625 C 1.019531 -0.554688 0.859375 -0.90625 0.859375 -1.3125 Z M 0.859375 -1.3125 "/></g></g></g></svg>