<svg xmlns="http://www.w3.org/2000/svg" xmlns:xlink="http://www.w3.org/1999/xlink" width="500" zoomAndPan="magnify" viewBox="0 0 375 374.999991" height="500" preserveAspectRatio="xMidYMid meet" version="1.0"><defs><g/><clipPath id="b503306ec9"><path d="M 126.246094 129.921875 L 248.753906 129.921875 L 248.753906 177.171875 L 126.246094 177.171875 Z M 126.246094 129.921875 " clip-rule="nonzero"/></clipPath></defs><rect x="-37.5" width="450" fill="#ffffff" y="-37.499999" height="449.999989" fill-opacity="1"/><rect x="-37.5" width="450" fill="#110f3b" y="-37.499999" height="449.999989" fill-opacity="1"/><g clip-path="url(#b503306ec9)"><path fill="#f5f4f0" d="M 137.539062 175.957031 L 143.242188 166.777344 L 149.492188 162.925781 L 153.34375 165.425781 C 153.558594 165.5625 153.839844 165.554688 154.042969 165.402344 L 159.59375 161.476562 L 169.921875 168.152344 L 170.074219 168.226562 L 170.472656 168.226562 C 170.652344 168.160156 170.789062 168.011719 170.847656 167.828125 L 176.949219 147.171875 L 183.125 143.375 L 188.050781 146.125 C 188.308594 146.269531 188.628906 146.21875 188.828125 146 L 191.003906 143.597656 L 213.382812 171.554688 L 213.480469 171.652344 L 213.53125 171.652344 L 213.632812 171.703125 L 213.980469 171.703125 C 214.199219 171.664062 214.382812 171.511719 214.457031 171.304688 L 217.535156 162.550781 L 222.609375 159.5 L 226.835938 161.828125 C 227.109375 161.976562 227.449219 161.902344 227.636719 161.652344 L 229.011719 159.925781 L 246.515625 175.957031 Z M 140.339844 164.652344 L 141.515625 165.902344 L 141.992188 166.429688 L 136.089844 175.957031 L 128.4375 175.957031 Z M 146.992188 158.351562 L 142.691406 165.300781 L 141.265625 163.800781 Z M 144.71875 164.402344 L 150.242188 155.449219 L 157.496094 160.125 L 158.445312 160.75 L 153.667969 164.152344 L 149.84375 161.675781 C 149.636719 161.546875 149.375 161.546875 149.167969 161.675781 Z M 142.792969 166.953125 Z M 142.792969 166.953125 Z M 158.746094 159.453125 L 171.523438 143.5 L 175.671875 146.949219 L 169.847656 166.628906 L 159.871094 160.175781 Z M 179.75 133.269531 L 178.925781 136.070312 L 176.097656 145.648438 L 175.875 145.449219 L 172.347656 142.523438 Z M 181.5 131.71875 L 190.203125 142.597656 L 188.226562 144.773438 L 183.425781 142.074219 C 183.226562 141.96875 182.988281 141.976562 182.800781 142.097656 L 177.472656 145.375 Z M 208.929688 163.976562 L 213.308594 159.675781 L 216.28125 162.378906 L 213.632812 169.878906 Z M 219.285156 153.851562 L 216.730469 161.101562 L 214.207031 158.828125 Z M 222.257812 158.300781 L 218.183594 160.777344 L 221.058594 152.648438 L 228.109375 159.101562 L 226.984375 160.550781 L 222.910156 158.300781 C 222.710938 158.179688 222.460938 158.179688 222.257812 158.300781 Z M 248.5625 176.128906 L 229.359375 158.550781 L 221.183594 151.074219 L 221.109375 151 L 221.058594 151 L 220.933594 150.949219 L 220.609375 150.949219 L 220.484375 151 L 220.457031 151 L 220.359375 151.074219 L 220.332031 151.074219 L 208.128906 163.003906 L 191.503906 142.246094 L 181.726562 130.019531 L 181.625 129.921875 L 181.125 129.921875 L 180.976562 129.96875 L 180.949219 129.96875 L 180.824219 130.046875 L 180.773438 130.09375 L 170.972656 142.324219 L 157.71875 158.875 L 150.417969 154.148438 L 149.769531 154.148438 L 149.695312 154.199219 L 149.617188 154.199219 L 139.941406 163.300781 L 126.4375 176.128906 C 126.1875 176.371094 126.183594 176.765625 126.421875 177.015625 C 126.539062 177.132812 126.695312 177.203125 126.863281 177.207031 L 248.140625 177.207031 C 248.484375 177.199219 248.761719 176.917969 248.753906 176.570312 C 248.753906 176.40625 248.683594 176.246094 248.5625 176.128906 " fill-opacity="1" fill-rule="nonzero"/></g><g fill="#f5f4f0" fill-opacity="1"><g transform="translate(78.289058, 210.431192)"><g><path d="M 1.953125 0 L 1.953125 -1.015625 L 3.09375 -1.015625 C 3.695312 -1.015625 4.175781 -1.238281 4.53125 -1.6875 C 4.894531 -2.132812 5.078125 -2.75 5.078125 -3.53125 L 5.078125 -20.5625 C 5.054688 -21.132812 4.769531 -21.421875 4.21875 -21.421875 L 1.953125 -21.421875 L 1.953125 -22.421875 L 7.90625 -22.421875 L 18.84375 -4.84375 L 18.84375 -18.90625 C 18.84375 -19.695312 18.660156 -20.3125 18.296875 -20.75 C 17.941406 -21.195312 17.472656 -21.421875 16.890625 -21.421875 L 15.75 -21.421875 L 15.75 -22.421875 L 23.25 -22.421875 L 23.25 -21.421875 L 22.109375 -21.421875 C 21.523438 -21.421875 21.039062 -21.195312 20.65625 -20.75 C 20.28125 -20.3125 20.09375 -19.695312 20.09375 -18.90625 L 20.09375 0.5625 L 18.84375 0.5625 L 6.453125 -19 L 6.328125 -19 L 6.328125 -3.53125 C 6.328125 -2.75 6.507812 -2.132812 6.875 -1.6875 C 7.25 -1.238281 7.726562 -1.015625 8.3125 -1.015625 L 9.453125 -1.015625 L 9.453125 0 Z M 1.953125 0 "/></g></g></g><g fill="#f5f4f0" fill-opacity="1"><g transform="translate(102.544088, 210.431192)"><g><path d="M 4.28125 -7.1875 C 4.28125 -5.84375 4.390625 -4.660156 4.609375 -3.640625 C 4.835938 -2.617188 5.207031 -1.816406 5.71875 -1.234375 C 6.226562 -0.660156 6.925781 -0.375 7.8125 -0.375 C 8.695312 -0.375 9.394531 -0.660156 9.90625 -1.234375 C 10.414062 -1.816406 10.78125 -2.617188 11 -3.640625 C 11.226562 -4.660156 11.34375 -5.84375 11.34375 -7.1875 C 11.34375 -8.53125 11.226562 -9.707031 11 -10.71875 C 10.78125 -11.738281 10.414062 -12.535156 9.90625 -13.109375 C 9.394531 -13.691406 8.695312 -13.984375 7.8125 -13.984375 C 6.925781 -13.984375 6.226562 -13.691406 5.71875 -13.109375 C 5.207031 -12.535156 4.835938 -11.738281 4.609375 -10.71875 C 4.390625 -9.707031 4.28125 -8.53125 4.28125 -7.1875 Z M 1.515625 -7.1875 C 1.515625 -8.570312 1.789062 -9.832031 2.34375 -10.96875 C 2.90625 -12.113281 3.660156 -13.023438 4.609375 -13.703125 C 5.566406 -14.390625 6.632812 -14.734375 7.8125 -14.734375 C 8.988281 -14.734375 10.050781 -14.390625 11 -13.703125 C 11.957031 -13.023438 12.710938 -12.113281 13.265625 -10.96875 C 13.828125 -9.832031 14.109375 -8.570312 14.109375 -7.1875 C 14.109375 -5.800781 13.828125 -4.535156 13.265625 -3.390625 C 12.710938 -2.242188 11.957031 -1.328125 11 -0.640625 C 10.050781 0.0351562 8.988281 0.375 7.8125 0.375 C 6.632812 0.375 5.566406 0.0351562 4.609375 -0.640625 C 3.660156 -1.328125 2.90625 -2.242188 2.34375 -3.390625 C 1.789062 -4.535156 1.515625 -5.800781 1.515625 -7.1875 Z M 1.515625 -7.1875 "/></g></g></g><g fill="#f5f4f0" fill-opacity="1"><g transform="translate(118.16811, 210.431192)"><g><path d="M 1.203125 0 L 1.203125 -0.75 L 2.515625 -0.75 C 2.984375 -0.75 3.21875 -0.984375 3.21875 -1.453125 L 3.21875 -12.921875 C 3.21875 -13.378906 2.984375 -13.609375 2.515625 -13.609375 L 1.203125 -13.609375 L 1.203125 -14.359375 L 5.484375 -14.359375 L 5.484375 -10.328125 L 5.609375 -10.296875 C 5.835938 -10.867188 6.050781 -11.359375 6.25 -11.765625 C 6.445312 -12.171875 6.707031 -12.609375 7.03125 -13.078125 C 7.363281 -13.554688 7.789062 -13.953125 8.3125 -14.265625 C 8.84375 -14.578125 9.367188 -14.734375 9.890625 -14.734375 C 10.753906 -14.734375 11.367188 -14.457031 11.734375 -13.90625 C 12.097656 -13.351562 12.28125 -12.769531 12.28125 -12.15625 C 12.28125 -11.882812 12.226562 -11.578125 12.125 -11.234375 C 12.019531 -10.898438 11.835938 -10.613281 11.578125 -10.375 C 11.316406 -10.132812 10.960938 -10.015625 10.515625 -10.015625 C 10.140625 -10.015625 9.8125 -10.113281 9.53125 -10.3125 C 9.25 -10.507812 9.109375 -10.8125 9.109375 -11.21875 C 9.109375 -11.820312 9.390625 -12.28125 9.953125 -12.59375 C 10.097656 -12.675781 10.25 -12.800781 10.40625 -12.96875 C 10.5625 -13.144531 10.640625 -13.304688 10.640625 -13.453125 C 10.640625 -13.617188 10.582031 -13.75 10.46875 -13.84375 C 10.351562 -13.9375 10.117188 -13.984375 9.765625 -13.984375 C 9.535156 -13.984375 9.226562 -13.914062 8.84375 -13.78125 C 8.46875 -13.644531 8.0625 -13.300781 7.625 -12.75 C 7.1875 -12.207031 6.742188 -11.316406 6.296875 -10.078125 C 6.066406 -9.410156 5.875 -8.648438 5.71875 -7.796875 C 5.5625 -6.941406 5.484375 -6.210938 5.484375 -5.609375 L 5.484375 -1.453125 C 5.484375 -0.984375 5.710938 -0.75 6.171875 -0.75 L 7.5 -0.75 L 7.5 0 Z M 1.203125 0 "/></g></g></g><g fill="#f5f4f0" fill-opacity="1"><g transform="translate(131.083121, 210.431192)"><g><path d="M 4.28125 -7.1875 C 4.28125 -5.882812 4.351562 -4.71875 4.5 -3.6875 C 4.644531 -2.65625 4.914062 -1.84375 5.3125 -1.25 C 5.71875 -0.664062 6.28125 -0.375 7 -0.375 C 7.8125 -0.375 8.5 -0.617188 9.0625 -1.109375 C 9.632812 -1.609375 10.070312 -2.238281 10.375 -3 C 10.6875 -3.769531 10.84375 -4.546875 10.84375 -5.328125 L 10.84375 -8.25 C 10.84375 -9.21875 10.65625 -10.132812 10.28125 -11 C 9.914062 -11.875 9.441406 -12.585938 8.859375 -13.140625 C 8.285156 -13.703125 7.664062 -13.984375 7 -13.984375 C 6.28125 -13.984375 5.71875 -13.6875 5.3125 -13.09375 C 4.914062 -12.507812 4.644531 -11.703125 4.5 -10.671875 C 4.351562 -9.648438 4.28125 -8.488281 4.28125 -7.1875 Z M 1.515625 -7.1875 C 1.515625 -8.570312 1.726562 -9.832031 2.15625 -10.96875 C 2.582031 -12.113281 3.203125 -13.023438 4.015625 -13.703125 C 4.828125 -14.390625 5.800781 -14.734375 6.9375 -14.734375 C 7.664062 -14.734375 8.363281 -14.492188 9.03125 -14.015625 C 9.707031 -13.535156 10.242188 -12.957031 10.640625 -12.28125 L 10.84375 -12.34375 L 10.84375 -20.984375 C 10.84375 -21.441406 10.609375 -21.671875 10.140625 -21.671875 L 7.875 -21.671875 L 7.875 -22.421875 L 13.109375 -22.421875 L 13.109375 -1.453125 C 13.109375 -0.984375 13.335938 -0.75 13.796875 -0.75 L 15.4375 -0.75 L 15.4375 0 L 10.84375 0 L 10.84375 -1.328125 L 10.671875 -1.421875 C 10.316406 -0.992188 9.8125 -0.585938 9.15625 -0.203125 C 8.507812 0.179688 7.8125 0.375 7.0625 0.375 C 5.925781 0.375 4.941406 0.0351562 4.109375 -0.640625 C 3.273438 -1.328125 2.632812 -2.242188 2.1875 -3.390625 C 1.738281 -4.535156 1.515625 -5.800781 1.515625 -7.1875 Z M 1.515625 -7.1875 "/></g></g></g><g fill="#f5f4f0" fill-opacity="1"><g transform="translate(147.526139, 210.431192)"><g><path d="M 1.203125 0 L 1.203125 -0.75 L 2.515625 -0.75 C 2.984375 -0.75 3.21875 -0.984375 3.21875 -1.453125 L 3.21875 -12.921875 C 3.21875 -13.378906 2.984375 -13.609375 2.515625 -13.609375 L 1.203125 -13.609375 L 1.203125 -14.359375 L 5.484375 -14.359375 L 5.484375 -11.59375 L 5.609375 -11.5625 C 6.128906 -12.550781 6.722656 -13.328125 7.390625 -13.890625 C 8.066406 -14.453125 8.828125 -14.734375 9.671875 -14.734375 C 10.296875 -14.734375 10.8125 -14.660156 11.21875 -14.515625 C 11.632812 -14.367188 11.988281 -14.171875 12.28125 -13.921875 C 12.707031 -13.585938 13.015625 -13.179688 13.203125 -12.703125 C 13.390625 -12.234375 13.523438 -11.757812 13.609375 -11.28125 L 13.734375 -11.25 C 13.796875 -11.414062 13.929688 -11.6875 14.140625 -12.0625 C 14.347656 -12.4375 14.625 -12.828125 14.96875 -13.234375 C 15.320312 -13.648438 15.742188 -14.003906 16.234375 -14.296875 C 16.734375 -14.585938 17.296875 -14.734375 17.921875 -14.734375 C 18.554688 -14.734375 19.078125 -14.660156 19.484375 -14.515625 C 19.890625 -14.367188 20.238281 -14.171875 20.53125 -13.921875 C 20.914062 -13.628906 21.210938 -13.242188 21.421875 -12.765625 C 21.628906 -12.296875 21.773438 -11.816406 21.859375 -11.328125 C 21.941406 -10.847656 21.984375 -10.421875 21.984375 -10.046875 L 21.984375 -1.453125 C 21.984375 -0.984375 22.21875 -0.75 22.6875 -0.75 L 24 -0.75 L 24 0 L 17.703125 0 L 17.703125 -0.75 L 19.03125 -0.75 C 19.488281 -0.75 19.71875 -0.984375 19.71875 -1.453125 L 19.71875 -10.671875 C 19.71875 -11.179688 19.660156 -11.691406 19.546875 -12.203125 C 19.429688 -12.722656 19.21875 -13.148438 18.90625 -13.484375 C 18.601562 -13.816406 18.179688 -13.984375 17.640625 -13.984375 C 17.054688 -13.984375 16.460938 -13.710938 15.859375 -13.171875 C 15.265625 -12.640625 14.757812 -11.921875 14.34375 -11.015625 C 13.9375 -10.117188 13.734375 -9.113281 13.734375 -8 L 13.734375 -1.453125 C 13.734375 -0.984375 13.960938 -0.75 14.421875 -0.75 L 15.75 -0.75 L 15.75 0 L 9.453125 0 L 9.453125 -0.75 L 10.765625 -0.75 C 11.234375 -0.75 11.46875 -0.984375 11.46875 -1.453125 L 11.46875 -10.671875 C 11.46875 -11.179688 11.410156 -11.691406 11.296875 -12.203125 C 11.179688 -12.722656 10.96875 -13.148438 10.65625 -13.484375 C 10.351562 -13.816406 9.929688 -13.984375 9.390625 -13.984375 C 8.796875 -13.984375 8.195312 -13.710938 7.59375 -13.171875 C 7 -12.640625 6.5 -11.921875 6.09375 -11.015625 C 5.6875 -10.117188 5.484375 -9.113281 5.484375 -8 L 5.484375 -1.453125 C 5.484375 -0.984375 5.710938 -0.75 6.171875 -0.75 L 7.5 -0.75 L 7.5 0 Z M 1.203125 0 "/></g></g></g><g fill="#f5f4f0" fill-opacity="1"><g transform="translate(172.537166, 210.431192)"><g><path d="M 4.09375 -3.25 C 4.09375 -2.507812 4.203125 -1.960938 4.421875 -1.609375 C 4.640625 -1.253906 4.90625 -1.019531 5.21875 -0.90625 C 5.539062 -0.800781 5.816406 -0.75 6.046875 -0.75 C 6.765625 -0.75 7.359375 -0.972656 7.828125 -1.421875 C 8.296875 -1.878906 8.675781 -2.410156 8.96875 -3.015625 C 9.269531 -3.628906 9.515625 -4.195312 9.703125 -4.71875 L 9.703125 -7.71875 L 6.96875 -7.125 C 5.9375 -6.90625 5.195312 -6.476562 4.75 -5.84375 C 4.3125 -5.21875 4.09375 -4.351562 4.09375 -3.25 Z M 1.453125 -3.34375 C 1.453125 -4.195312 1.625 -4.894531 1.96875 -5.4375 C 2.3125 -5.988281 2.757812 -6.421875 3.3125 -6.734375 C 3.875 -7.054688 4.460938 -7.296875 5.078125 -7.453125 C 5.703125 -7.609375 6.273438 -7.738281 6.796875 -7.84375 L 9.703125 -8.375 L 9.703125 -11.0625 C 9.703125 -12.164062 9.421875 -12.925781 8.859375 -13.34375 C 8.304688 -13.769531 7.609375 -13.984375 6.765625 -13.984375 C 6.054688 -13.984375 5.40625 -13.804688 4.8125 -13.453125 C 4.226562 -13.097656 3.9375 -12.675781 3.9375 -12.1875 C 3.9375 -12.101562 3.941406 -12.023438 3.953125 -11.953125 C 3.960938 -11.878906 3.988281 -11.800781 4.03125 -11.71875 C 4.113281 -11.550781 4.269531 -11.445312 4.5 -11.40625 C 4.863281 -11.320312 5.148438 -11.179688 5.359375 -10.984375 C 5.566406 -10.796875 5.671875 -10.523438 5.671875 -10.171875 C 5.671875 -9.710938 5.523438 -9.394531 5.234375 -9.21875 C 4.953125 -9.039062 4.632812 -8.953125 4.28125 -8.953125 C 3.882812 -8.953125 3.476562 -9.117188 3.0625 -9.453125 C 2.65625 -9.785156 2.453125 -10.3125 2.453125 -11.03125 C 2.453125 -11.84375 2.675781 -12.519531 3.125 -13.0625 C 3.582031 -13.613281 4.144531 -14.03125 4.8125 -14.3125 C 5.488281 -14.59375 6.171875 -14.734375 6.859375 -14.734375 C 7.660156 -14.734375 8.453125 -14.59375 9.234375 -14.3125 C 10.023438 -14.03125 10.675781 -13.5625 11.1875 -12.90625 C 11.707031 -12.257812 11.96875 -11.378906 11.96875 -10.265625 L 11.96875 -2.515625 C 11.96875 -1.460938 12.296875 -0.9375 12.953125 -0.9375 C 13.328125 -0.9375 13.625 -1.09375 13.84375 -1.40625 C 14.0625 -1.726562 14.210938 -2.128906 14.296875 -2.609375 C 14.378906 -3.097656 14.421875 -3.59375 14.421875 -4.09375 L 15 -4.09375 C 15 -3.425781 14.929688 -2.742188 14.796875 -2.046875 C 14.671875 -1.359375 14.429688 -0.78125 14.078125 -0.3125 C 13.722656 0.144531 13.1875 0.375 12.46875 0.375 C 11.550781 0.375 10.867188 0.0976562 10.421875 -0.453125 C 9.984375 -1.015625 9.742188 -1.742188 9.703125 -2.640625 L 9.546875 -2.703125 C 9.398438 -2.328125 9.140625 -1.894531 8.765625 -1.40625 C 8.398438 -0.925781 7.945312 -0.507812 7.40625 -0.15625 C 6.875 0.195312 6.253906 0.375 5.546875 0.375 C 4.953125 0.375 4.335938 0.28125 3.703125 0.09375 C 3.078125 -0.09375 2.546875 -0.453125 2.109375 -0.984375 C 1.671875 -1.523438 1.453125 -2.3125 1.453125 -3.34375 Z M 1.453125 -3.34375 "/></g></g></g><g fill="#f5f4f0" fill-opacity="1"><g transform="translate(188.287189, 210.431192)"><g><path d="M 1.203125 0 L 1.203125 -0.75 L 2.515625 -0.75 C 2.984375 -0.75 3.21875 -0.984375 3.21875 -1.453125 L 3.21875 -12.921875 C 3.21875 -13.378906 2.984375 -13.609375 2.515625 -13.609375 L 1.203125 -13.609375 L 1.203125 -14.359375 L 5.484375 -14.359375 L 5.484375 -10.328125 L 5.609375 -10.296875 C 5.835938 -10.867188 6.050781 -11.359375 6.25 -11.765625 C 6.445312 -12.171875 6.707031 -12.609375 7.03125 -13.078125 C 7.363281 -13.554688 7.789062 -13.953125 8.3125 -14.265625 C 8.84375 -14.578125 9.367188 -14.734375 9.890625 -14.734375 C 10.753906 -14.734375 11.367188 -14.457031 11.734375 -13.90625 C 12.097656 -13.351562 12.28125 -12.769531 12.28125 -12.15625 C 12.28125 -11.882812 12.226562 -11.578125 12.125 -11.234375 C 12.019531 -10.898438 11.835938 -10.613281 11.578125 -10.375 C 11.316406 -10.132812 10.960938 -10.015625 10.515625 -10.015625 C 10.140625 -10.015625 9.8125 -10.113281 9.53125 -10.3125 C 9.25 -10.507812 9.109375 -10.8125 9.109375 -11.21875 C 9.109375 -11.820312 9.390625 -12.28125 9.953125 -12.59375 C 10.097656 -12.675781 10.25 -12.800781 10.40625 -12.96875 C 10.5625 -13.144531 10.640625 -13.304688 10.640625 -13.453125 C 10.640625 -13.617188 10.582031 -13.75 10.46875 -13.84375 C 10.351562 -13.9375 10.117188 -13.984375 9.765625 -13.984375 C 9.535156 -13.984375 9.226562 -13.914062 8.84375 -13.78125 C 8.46875 -13.644531 8.0625 -13.300781 7.625 -12.75 C 7.1875 -12.207031 6.742188 -11.316406 6.296875 -10.078125 C 6.066406 -9.410156 5.875 -8.648438 5.71875 -7.796875 C 5.5625 -6.941406 5.484375 -6.210938 5.484375 -5.609375 L 5.484375 -1.453125 C 5.484375 -0.984375 5.710938 -0.75 6.171875 -0.75 L 7.5 -0.75 L 7.5 0 Z M 1.203125 0 "/></g></g></g><g fill="#f5f4f0" fill-opacity="1"><g transform="translate(201.2022, 210.431192)"><g><path d="M 0.875 0 L 0.875 -0.75 L 2.515625 -0.75 C 2.984375 -0.75 3.21875 -0.984375 3.21875 -1.453125 L 3.21875 -20.984375 C 3.21875 -21.441406 2.984375 -21.671875 2.515625 -21.671875 L 0.875 -21.671875 L 0.875 -22.421875 L 5.484375 -22.421875 L 5.484375 -6.390625 L 9.765625 -11.625 C 9.972656 -11.851562 10.117188 -12.046875 10.203125 -12.203125 C 10.285156 -12.359375 10.328125 -12.550781 10.328125 -12.78125 C 10.328125 -13.082031 10.222656 -13.296875 10.015625 -13.421875 C 9.804688 -13.546875 9.554688 -13.609375 9.265625 -13.609375 L 8.4375 -13.609375 L 8.4375 -14.359375 L 14.875 -14.359375 L 14.875 -13.609375 L 13.859375 -13.609375 C 13.273438 -13.609375 12.757812 -13.453125 12.3125 -13.140625 C 11.875 -12.835938 11.382812 -12.351562 10.84375 -11.6875 L 8.4375 -8.75 L 13.359375 -1.765625 C 13.566406 -1.472656 13.765625 -1.226562 13.953125 -1.03125 C 14.140625 -0.84375 14.425781 -0.75 14.8125 -0.75 L 15.4375 -0.75 L 15.4375 0 L 8.75 0 L 8.75 -0.75 L 9.578125 -0.75 C 9.828125 -0.75 10.03125 -0.789062 10.1875 -0.875 C 10.34375 -0.96875 10.421875 -1.140625 10.421875 -1.390625 C 10.421875 -1.640625 10.382812 -1.84375 10.3125 -2 C 10.238281 -2.15625 10.140625 -2.328125 10.015625 -2.515625 L 6.9375 -6.9375 L 5.484375 -5.171875 L 5.484375 -1.453125 C 5.484375 -0.984375 5.710938 -0.75 6.171875 -0.75 L 7.1875 -0.75 L 7.1875 0 Z M 0.875 0 "/></g></g></g><g fill="#f5f4f0" fill-opacity="1"><g transform="translate(217.582219, 210.431192)"><g/></g></g><g fill="#f5f4f0" fill-opacity="1"><g transform="translate(226.402226, 210.431192)"><g><path d="M 1.703125 -4.5625 C 1.703125 -5.257812 1.851562 -5.921875 2.15625 -6.546875 C 2.457031 -7.179688 2.84375 -7.769531 3.3125 -8.3125 C 3.789062 -8.863281 4.285156 -9.351562 4.796875 -9.78125 C 5.316406 -10.207031 5.773438 -10.582031 6.171875 -10.90625 L 7.125 -11.625 L 6.796875 -12.09375 C 6.316406 -12.832031 5.925781 -13.601562 5.625 -14.40625 C 5.320312 -15.21875 5.171875 -15.976562 5.171875 -16.6875 C 5.171875 -17.757812 5.394531 -18.707031 5.84375 -19.53125 C 6.289062 -20.351562 6.882812 -20.992188 7.625 -21.453125 C 8.375 -21.910156 9.171875 -22.140625 10.015625 -22.140625 C 10.898438 -22.140625 11.613281 -21.945312 12.15625 -21.5625 C 12.707031 -21.175781 13.101562 -20.6875 13.34375 -20.09375 C 13.582031 -19.507812 13.703125 -18.898438 13.703125 -18.265625 C 13.703125 -17.410156 13.503906 -16.628906 13.109375 -15.921875 C 12.722656 -15.222656 12.226562 -14.582031 11.625 -14 C 11.03125 -13.425781 10.421875 -12.882812 9.796875 -12.375 L 15.21875 -4.6875 L 15.34375 -4.84375 C 15.84375 -5.457031 16.28125 -6.101562 16.65625 -6.78125 C 17.039062 -7.46875 17.34375 -8.117188 17.5625 -8.734375 C 17.78125 -9.359375 17.890625 -9.867188 17.890625 -10.265625 C 17.890625 -10.671875 17.765625 -10.984375 17.515625 -11.203125 C 17.265625 -11.421875 16.976562 -11.53125 16.65625 -11.53125 L 15.25 -11.53125 L 15.25 -12.53125 L 23.0625 -12.53125 L 23.0625 -11.53125 L 22.078125 -11.53125 C 21.660156 -11.53125 21.207031 -11.445312 20.71875 -11.28125 C 20.238281 -11.113281 19.789062 -10.597656 19.375 -9.734375 C 18.757812 -8.492188 18.242188 -7.503906 17.828125 -6.765625 C 17.410156 -6.035156 17.046875 -5.445312 16.734375 -5 C 16.429688 -4.5625 16.132812 -4.164062 15.84375 -3.8125 C 16.519531 -2.90625 17.125 -2.175781 17.65625 -1.625 C 18.1875 -1.082031 18.71875 -0.8125 19.25 -0.8125 C 19.832031 -0.8125 20.316406 -0.9375 20.703125 -1.1875 C 21.097656 -1.445312 21.421875 -1.765625 21.671875 -2.140625 C 21.921875 -2.515625 22.128906 -2.875 22.296875 -3.21875 L 22.8125 -2.96875 C 22.632812 -2.601562 22.378906 -2.132812 22.046875 -1.5625 C 21.710938 -1 21.257812 -0.503906 20.6875 -0.078125 C 20.125 0.347656 19.398438 0.5625 18.515625 0.5625 C 17.679688 0.5625 16.890625 0.316406 16.140625 -0.171875 C 15.398438 -0.660156 14.703125 -1.265625 14.046875 -1.984375 C 13.273438 -1.304688 12.359375 -0.710938 11.296875 -0.203125 C 10.234375 0.304688 9.082031 0.5625 7.84375 0.5625 C 6 0.5625 4.515625 0.144531 3.390625 -0.6875 C 2.265625 -1.53125 1.703125 -2.820312 1.703125 -4.5625 Z M 4.71875 -4.8125 C 4.71875 -3.769531 4.90625 -2.921875 5.28125 -2.265625 C 5.664062 -1.617188 6.128906 -1.140625 6.671875 -0.828125 C 7.222656 -0.523438 7.738281 -0.375 8.21875 -0.375 C 9.25 -0.375 10.1875 -0.601562 11.03125 -1.0625 C 11.882812 -1.53125 12.671875 -2.085938 13.390625 -2.734375 L 12.828125 -3.46875 L 7.75 -10.734375 L 7.4375 -10.484375 C 7.007812 -10.148438 6.585938 -9.734375 6.171875 -9.234375 C 5.753906 -8.742188 5.40625 -8.132812 5.125 -7.40625 C 4.851562 -6.6875 4.71875 -5.820312 4.71875 -4.8125 Z M 7.1875 -17.640625 C 7.1875 -17.140625 7.285156 -16.625 7.484375 -16.09375 C 7.679688 -15.570312 7.914062 -15.097656 8.1875 -14.671875 C 8.457031 -14.253906 8.675781 -13.929688 8.84375 -13.703125 L 9.171875 -13.296875 C 9.609375 -13.628906 10.085938 -14.03125 10.609375 -14.5 C 11.140625 -14.976562 11.597656 -15.539062 11.984375 -16.1875 C 12.367188 -16.84375 12.5625 -17.597656 12.5625 -18.453125 C 12.5625 -19.191406 12.328125 -19.832031 11.859375 -20.375 C 11.390625 -20.925781 10.785156 -21.203125 10.046875 -21.203125 C 9.160156 -21.203125 8.460938 -20.867188 7.953125 -20.203125 C 7.441406 -19.546875 7.1875 -18.691406 7.1875 -17.640625 Z M 7.1875 -17.640625 "/></g></g></g><g fill="#f5f4f0" fill-opacity="1"><g transform="translate(251.161253, 210.431192)"><g/></g></g><g fill="#f5f4f0" fill-opacity="1"><g transform="translate(259.98126, 210.431192)"><g><path d="M 2.203125 -11.40625 C 2.203125 -12.976562 2.398438 -14.460938 2.796875 -15.859375 C 3.203125 -17.253906 3.78125 -18.488281 4.53125 -19.5625 C 5.289062 -20.632812 6.21875 -21.472656 7.3125 -22.078125 C 8.40625 -22.691406 9.644531 -23 11.03125 -23 C 11.820312 -23 12.566406 -22.828125 13.265625 -22.484375 C 13.972656 -22.148438 14.53125 -21.835938 14.9375 -21.546875 C 15.269531 -21.316406 15.539062 -21.117188 15.75 -20.953125 C 16.0625 -20.648438 16.351562 -20.5 16.625 -20.5 C 16.800781 -20.5 16.929688 -20.554688 17.015625 -20.671875 C 17.097656 -20.796875 17.179688 -20.972656 17.265625 -21.203125 L 17.796875 -22.75 L 18.578125 -22.75 L 18.578125 -13.984375 L 17.796875 -13.984375 C 17.316406 -15.765625 16.703125 -17.25 15.953125 -18.4375 C 15.210938 -19.625 14.414062 -20.507812 13.5625 -21.09375 C 12.707031 -21.6875 11.863281 -21.984375 11.03125 -21.984375 C 9.507812 -21.984375 8.351562 -21.546875 7.5625 -20.671875 C 6.78125 -19.804688 6.25 -18.578125 5.96875 -16.984375 C 5.6875 -15.398438 5.546875 -13.539062 5.546875 -11.40625 C 5.546875 -9.257812 5.707031 -7.363281 6.03125 -5.71875 C 6.351562 -4.070312 6.945312 -2.78125 7.8125 -1.84375 C 8.675781 -0.90625 9.914062 -0.4375 11.53125 -0.4375 C 12.625 -0.4375 13.5625 -0.65625 14.34375 -1.09375 C 15.132812 -1.539062 15.78125 -2.132812 16.28125 -2.875 C 16.789062 -3.625 17.179688 -4.453125 17.453125 -5.359375 C 17.722656 -6.273438 17.890625 -7.207031 17.953125 -8.15625 L 19.09375 -8.15625 C 19.070312 -7.570312 18.984375 -6.894531 18.828125 -6.125 C 18.679688 -5.363281 18.441406 -4.59375 18.109375 -3.8125 C 17.773438 -3.03125 17.320312 -2.304688 16.75 -1.640625 C 16.1875 -0.984375 15.476562 -0.453125 14.625 -0.046875 C 13.78125 0.359375 12.75 0.5625 11.53125 0.5625 C 10 0.5625 8.65625 0.222656 7.5 -0.453125 C 6.34375 -1.140625 5.367188 -2.050781 4.578125 -3.1875 C 3.796875 -4.332031 3.203125 -5.617188 2.796875 -7.046875 C 2.398438 -8.484375 2.203125 -9.9375 2.203125 -11.40625 Z M 2.203125 -11.40625 "/></g></g></g><g fill="#f5f4f0" fill-opacity="1"><g transform="translate(281.08627, 210.431192)"><g><path d="M 4.28125 -7.1875 C 4.28125 -5.84375 4.390625 -4.660156 4.609375 -3.640625 C 4.835938 -2.617188 5.207031 -1.816406 5.71875 -1.234375 C 6.226562 -0.660156 6.925781 -0.375 7.8125 -0.375 C 8.695312 -0.375 9.394531 -0.660156 9.90625 -1.234375 C 10.414062 -1.816406 10.78125 -2.617188 11 -3.640625 C 11.226562 -4.660156 11.34375 -5.84375 11.34375 -7.1875 C 11.34375 -8.53125 11.226562 -9.707031 11 -10.71875 C 10.78125 -11.738281 10.414062 -12.535156 9.90625 -13.109375 C 9.394531 -13.691406 8.695312 -13.984375 7.8125 -13.984375 C 6.925781 -13.984375 6.226562 -13.691406 5.71875 -13.109375 C 5.207031 -12.535156 4.835938 -11.738281 4.609375 -10.71875 C 4.390625 -9.707031 4.28125 -8.53125 4.28125 -7.1875 Z M 1.515625 -7.1875 C 1.515625 -8.570312 1.789062 -9.832031 2.34375 -10.96875 C 2.90625 -12.113281 3.660156 -13.023438 4.609375 -13.703125 C 5.566406 -14.390625 6.632812 -14.734375 7.8125 -14.734375 C 8.988281 -14.734375 10.050781 -14.390625 11 -13.703125 C 11.957031 -13.023438 12.710938 -12.113281 13.265625 -10.96875 C 13.828125 -9.832031 14.109375 -8.570312 14.109375 -7.1875 C 14.109375 -5.800781 13.828125 -4.535156 13.265625 -3.390625 C 12.710938 -2.242188 11.957031 -1.328125 11 -0.640625 C 10.050781 0.0351562 8.988281 0.375 7.8125 0.375 C 6.632812 0.375 5.566406 0.0351562 4.609375 -0.640625 C 3.660156 -1.328125 2.90625 -2.242188 2.34375 -3.390625 C 1.789062 -4.535156 1.515625 -5.800781 1.515625 -7.1875 Z M 1.515625 -7.1875 "/></g></g></g><g fill="#f5f4f0" fill-opacity="1"><g transform="translate(162.089834, 231.881176)"><g><path d="M 0.5625 0 L 0.5625 -0.28125 L 1.203125 -0.28125 C 1.367188 -0.28125 1.453125 -0.363281 1.453125 -0.53125 L 1.453125 -5.875 C 1.453125 -6.039062 1.367188 -6.125 1.203125 -6.125 L 0.5625 -6.125 L 0.5625 -6.40625 L 5.578125 -6.40625 L 5.609375 -4.375 L 5.390625 -4.375 C 5.390625 -4.375 5.382812 -4.4375 5.375 -4.5625 C 5.363281 -4.695312 5.332031 -4.859375 5.28125 -5.046875 C 5.226562 -5.234375 5.140625 -5.414062 5.015625 -5.59375 C 4.878906 -5.800781 4.710938 -5.941406 4.515625 -6.015625 C 4.328125 -6.085938 4.144531 -6.125 3.96875 -6.125 L 2.515625 -6.125 C 2.359375 -6.125 2.28125 -6.039062 2.28125 -5.875 L 2.28125 -3.421875 L 3.0625 -3.421875 C 3.300781 -3.421875 3.46875 -3.488281 3.5625 -3.625 C 3.664062 -3.757812 3.734375 -3.921875 3.765625 -4.109375 C 3.796875 -4.304688 3.8125 -4.488281 3.8125 -4.65625 L 4.046875 -4.65625 L 4.046875 -1.84375 L 3.8125 -1.84375 C 3.8125 -2.019531 3.796875 -2.203125 3.765625 -2.390625 C 3.734375 -2.585938 3.664062 -2.753906 3.5625 -2.890625 C 3.46875 -3.023438 3.300781 -3.09375 3.0625 -3.09375 L 2.28125 -3.09375 L 2.28125 -0.53125 C 2.28125 -0.363281 2.359375 -0.28125 2.515625 -0.28125 L 3.953125 -0.28125 C 4.085938 -0.28125 4.253906 -0.3125 4.453125 -0.375 C 4.648438 -0.445312 4.816406 -0.570312 4.953125 -0.75 C 5.054688 -0.882812 5.140625 -1.046875 5.203125 -1.234375 C 5.273438 -1.421875 5.328125 -1.601562 5.359375 -1.78125 C 5.398438 -1.96875 5.425781 -2.117188 5.4375 -2.234375 C 5.457031 -2.347656 5.46875 -2.40625 5.46875 -2.40625 L 5.6875 -2.40625 L 5.578125 0 Z M 0.5625 0 "/></g></g></g><g fill="#f5f4f0" fill-opacity="1"><g transform="translate(168.299878, 231.881176)"><g><path d="M 0.640625 -4 L 0.71875 -6.40625 L 5.890625 -6.40625 L 5.953125 -4 L 5.734375 -4 C 5.734375 -4 5.726562 -4.054688 5.71875 -4.171875 C 5.707031 -4.285156 5.6875 -4.429688 5.65625 -4.609375 C 5.625 -4.785156 5.578125 -4.96875 5.515625 -5.15625 C 5.453125 -5.34375 5.367188 -5.507812 5.265625 -5.65625 C 5.234375 -5.695312 5.175781 -5.753906 5.09375 -5.828125 C 5.007812 -5.910156 4.90625 -5.976562 4.78125 -6.03125 C 4.664062 -6.09375 4.53125 -6.125 4.375 -6.125 L 3.953125 -6.125 C 3.796875 -6.125 3.71875 -6.039062 3.71875 -5.875 L 3.71875 -0.53125 C 3.71875 -0.363281 3.796875 -0.28125 3.953125 -0.28125 L 4.828125 -0.28125 L 4.828125 0 L 1.78125 0 L 1.78125 -0.28125 L 2.640625 -0.28125 C 2.804688 -0.28125 2.890625 -0.363281 2.890625 -0.53125 L 2.890625 -5.875 C 2.890625 -6.039062 2.804688 -6.125 2.640625 -6.125 L 2.234375 -6.125 C 2.078125 -6.125 1.9375 -6.09375 1.8125 -6.03125 C 1.695312 -5.976562 1.597656 -5.910156 1.515625 -5.828125 C 1.429688 -5.753906 1.375 -5.695312 1.34375 -5.65625 C 1.226562 -5.507812 1.140625 -5.34375 1.078125 -5.15625 C 1.015625 -4.96875 0.96875 -4.785156 0.9375 -4.609375 C 0.914062 -4.429688 0.898438 -4.285156 0.890625 -4.171875 C 0.878906 -4.054688 0.875 -4 0.875 -4 Z M 0.640625 -4 "/></g></g></g><g fill="#f5f4f0" fill-opacity="1"><g transform="translate(174.725918, 231.881176)"><g><path d="M 2.28125 -0.53125 C 2.28125 -0.363281 2.359375 -0.28125 2.515625 -0.28125 L 3.484375 -0.28125 C 3.703125 -0.28125 3.90625 -0.320312 4.09375 -0.40625 C 4.289062 -0.488281 4.445312 -0.632812 4.5625 -0.84375 C 4.6875 -1.050781 4.75 -1.351562 4.75 -1.75 C 4.75 -2.132812 4.6875 -2.429688 4.5625 -2.640625 C 4.445312 -2.859375 4.289062 -3.003906 4.09375 -3.078125 C 3.90625 -3.160156 3.703125 -3.203125 3.484375 -3.203125 L 2.28125 -3.203125 Z M 0.5625 0 L 0.5625 -0.28125 L 1.203125 -0.28125 C 1.367188 -0.28125 1.453125 -0.363281 1.453125 -0.53125 L 1.453125 -5.875 C 1.453125 -6.039062 1.367188 -6.125 1.203125 -6.125 L 0.5625 -6.125 L 0.5625 -6.40625 L 3.484375 -6.40625 C 3.847656 -6.40625 4.179688 -6.335938 4.484375 -6.203125 C 4.796875 -6.078125 5.046875 -5.898438 5.234375 -5.671875 C 5.421875 -5.441406 5.515625 -5.175781 5.515625 -4.875 C 5.515625 -4.59375 5.441406 -4.34375 5.296875 -4.125 C 5.160156 -3.914062 4.988281 -3.742188 4.78125 -3.609375 C 4.570312 -3.484375 4.351562 -3.398438 4.125 -3.359375 L 4.125 -3.328125 C 4.363281 -3.304688 4.601562 -3.226562 4.84375 -3.09375 C 5.09375 -2.957031 5.296875 -2.773438 5.453125 -2.546875 C 5.617188 -2.328125 5.703125 -2.0625 5.703125 -1.75 C 5.703125 -1.363281 5.601562 -1.039062 5.40625 -0.78125 C 5.21875 -0.519531 4.960938 -0.320312 4.640625 -0.1875 C 4.316406 -0.0625 3.96875 0 3.59375 0 Z M 2.28125 -3.484375 L 3.453125 -3.484375 C 3.804688 -3.484375 4.070312 -3.546875 4.25 -3.671875 C 4.4375 -3.804688 4.5625 -3.976562 4.625 -4.1875 C 4.6875 -4.40625 4.71875 -4.632812 4.71875 -4.875 C 4.71875 -5.125 4.660156 -5.34375 4.546875 -5.53125 C 4.441406 -5.71875 4.300781 -5.863281 4.125 -5.96875 C 3.945312 -6.070312 3.75 -6.125 3.53125 -6.125 L 2.515625 -6.125 C 2.359375 -6.125 2.28125 -6.039062 2.28125 -5.875 Z M 2.28125 -3.484375 "/></g></g></g><g fill="#f5f4f0" fill-opacity="1"><g transform="translate(180.935963, 231.881176)"><g><path d="M 0.5625 0 L 0.5625 -0.28125 L 1.203125 -0.28125 C 1.367188 -0.28125 1.453125 -0.363281 1.453125 -0.53125 L 1.453125 -5.875 C 1.453125 -6.039062 1.367188 -6.125 1.203125 -6.125 L 0.5625 -6.125 L 0.5625 -6.40625 L 3.3125 -6.40625 L 3.3125 -6.125 L 2.515625 -6.125 C 2.359375 -6.125 2.28125 -6.039062 2.28125 -5.875 L 2.28125 -0.53125 C 2.28125 -0.363281 2.359375 -0.28125 2.515625 -0.28125 L 3.78125 -0.28125 C 3.914062 -0.28125 4.082031 -0.316406 4.28125 -0.390625 C 4.476562 -0.460938 4.640625 -0.582031 4.765625 -0.75 C 4.867188 -0.894531 4.953125 -1.0625 5.015625 -1.25 C 5.085938 -1.4375 5.140625 -1.617188 5.171875 -1.796875 C 5.210938 -1.972656 5.238281 -2.117188 5.25 -2.234375 C 5.269531 -2.359375 5.28125 -2.421875 5.28125 -2.421875 L 5.515625 -2.421875 L 5.390625 0 Z M 0.5625 0 "/></g></g></g><g fill="#f5f4f0" fill-opacity="1"><g transform="translate(186.966003, 231.881176)"><g><path d="M 0.703125 -0.453125 C 0.703125 -0.609375 0.753906 -0.738281 0.859375 -0.84375 C 0.960938 -0.957031 1.097656 -1.015625 1.265625 -1.015625 C 1.421875 -1.015625 1.550781 -0.957031 1.65625 -0.84375 C 1.757812 -0.738281 1.8125 -0.609375 1.8125 -0.453125 C 1.8125 -0.285156 1.757812 -0.148438 1.65625 -0.046875 C 1.550781 0.0546875 1.421875 0.109375 1.265625 0.109375 C 1.097656 0.109375 0.960938 0.0546875 0.859375 -0.046875 C 0.753906 -0.148438 0.703125 -0.285156 0.703125 -0.453125 Z M 0.703125 -0.453125 "/></g></g></g><g fill="#f5f4f0" fill-opacity="1"><g transform="translate(189.486026, 231.881176)"><g/></g></g><g fill="#f5f4f0" fill-opacity="1"><g transform="translate(192.006049, 231.881176)"><g><path d="M 0.671875 -4.6875 C 0.671875 -5 0.742188 -5.273438 0.890625 -5.515625 C 1.046875 -5.753906 1.257812 -5.941406 1.53125 -6.078125 C 1.800781 -6.222656 2.109375 -6.296875 2.453125 -6.296875 C 2.835938 -6.296875 3.179688 -6.222656 3.484375 -6.078125 C 3.785156 -5.941406 4.023438 -5.738281 4.203125 -5.46875 C 4.378906 -5.207031 4.46875 -4.890625 4.46875 -4.515625 C 4.46875 -4.234375 4.390625 -3.972656 4.234375 -3.734375 C 4.078125 -3.503906 3.890625 -3.296875 3.671875 -3.109375 C 3.460938 -2.929688 3.257812 -2.769531 3.0625 -2.625 L 2.171875 -1.9375 C 1.953125 -1.78125 1.765625 -1.617188 1.609375 -1.453125 C 1.460938 -1.296875 1.390625 -1.128906 1.390625 -0.953125 C 1.390625 -0.859375 1.421875 -0.796875 1.484375 -0.765625 C 1.546875 -0.742188 1.609375 -0.734375 1.671875 -0.734375 L 3.375 -0.734375 C 3.632812 -0.734375 3.8125 -0.789062 3.90625 -0.90625 C 4 -1.03125 4.0625 -1.175781 4.09375 -1.34375 L 4.1875 -1.875 L 4.390625 -1.875 L 4.25 0 L 0.75 0 C 0.75 -0.144531 0.765625 -0.320312 0.796875 -0.53125 C 0.828125 -0.738281 0.914062 -0.96875 1.0625 -1.21875 C 1.207031 -1.476562 1.445312 -1.75 1.78125 -2.03125 L 2.640625 -2.765625 C 2.910156 -2.984375 3.125 -3.234375 3.28125 -3.515625 C 3.4375 -3.796875 3.515625 -4.128906 3.515625 -4.515625 C 3.515625 -4.984375 3.398438 -5.34375 3.171875 -5.59375 C 2.941406 -5.84375 2.617188 -5.96875 2.203125 -5.96875 C 2.003906 -5.96875 1.816406 -5.921875 1.640625 -5.828125 C 1.460938 -5.742188 1.316406 -5.628906 1.203125 -5.484375 C 1.097656 -5.347656 1.046875 -5.195312 1.046875 -5.03125 C 1.046875 -4.875 1.082031 -4.765625 1.15625 -4.703125 C 1.226562 -4.640625 1.3125 -4.597656 1.40625 -4.578125 C 1.613281 -4.546875 1.757812 -4.476562 1.84375 -4.375 C 1.9375 -4.269531 1.984375 -4.15625 1.984375 -4.03125 C 1.984375 -3.925781 1.941406 -3.832031 1.859375 -3.75 C 1.785156 -3.664062 1.671875 -3.625 1.515625 -3.625 C 1.273438 -3.625 1.070312 -3.71875 0.90625 -3.90625 C 0.75 -4.101562 0.671875 -4.363281 0.671875 -4.6875 Z M 0.671875 -4.6875 "/></g></g></g><g fill="#f5f4f0" fill-opacity="1"><g transform="translate(197.226088, 231.881176)"><g><path d="M 1.390625 -3.078125 C 1.390625 -2.847656 1.394531 -2.597656 1.40625 -2.328125 C 1.414062 -2.054688 1.441406 -1.789062 1.484375 -1.53125 C 1.535156 -1.28125 1.601562 -1.046875 1.6875 -0.828125 C 1.769531 -0.617188 1.882812 -0.453125 2.03125 -0.328125 C 2.1875 -0.203125 2.378906 -0.140625 2.609375 -0.140625 C 2.835938 -0.140625 3.023438 -0.203125 3.171875 -0.328125 C 3.316406 -0.453125 3.429688 -0.617188 3.515625 -0.828125 C 3.609375 -1.046875 3.675781 -1.28125 3.71875 -1.53125 C 3.757812 -1.789062 3.785156 -2.054688 3.796875 -2.328125 C 3.816406 -2.597656 3.828125 -2.847656 3.828125 -3.078125 C 3.828125 -3.316406 3.816406 -3.566406 3.796875 -3.828125 C 3.785156 -4.097656 3.757812 -4.359375 3.71875 -4.609375 C 3.675781 -4.867188 3.609375 -5.101562 3.515625 -5.3125 C 3.429688 -5.53125 3.316406 -5.703125 3.171875 -5.828125 C 3.023438 -5.953125 2.835938 -6.015625 2.609375 -6.015625 C 2.378906 -6.015625 2.1875 -5.953125 2.03125 -5.828125 C 1.882812 -5.703125 1.769531 -5.53125 1.6875 -5.3125 C 1.601562 -5.101562 1.535156 -4.867188 1.484375 -4.609375 C 1.441406 -4.359375 1.414062 -4.097656 1.40625 -3.828125 C 1.394531 -3.566406 1.390625 -3.316406 1.390625 -3.078125 Z M 0.4375 -3.078125 C 0.4375 -3.484375 0.484375 -3.875 0.578125 -4.25 C 0.679688 -4.632812 0.828125 -4.984375 1.015625 -5.296875 C 1.210938 -5.609375 1.441406 -5.851562 1.703125 -6.03125 C 1.972656 -6.207031 2.273438 -6.296875 2.609375 -6.296875 C 2.941406 -6.296875 3.238281 -6.207031 3.5 -6.03125 C 3.769531 -5.851562 4 -5.609375 4.1875 -5.296875 C 4.382812 -4.984375 4.53125 -4.632812 4.625 -4.25 C 4.726562 -3.875 4.78125 -3.484375 4.78125 -3.078125 C 4.78125 -2.671875 4.726562 -2.273438 4.625 -1.890625 C 4.53125 -1.515625 4.382812 -1.171875 4.1875 -0.859375 C 4 -0.554688 3.769531 -0.3125 3.5 -0.125 C 3.238281 0.0507812 2.941406 0.140625 2.609375 0.140625 C 2.273438 0.140625 1.972656 0.0507812 1.703125 -0.125 C 1.441406 -0.3125 1.210938 -0.554688 1.015625 -0.859375 C 0.828125 -1.171875 0.679688 -1.515625 0.578125 -1.890625 C 0.484375 -2.273438 0.4375 -2.671875 0.4375 -3.078125 Z M 0.4375 -3.078125 "/></g></g></g><g fill="#f5f4f0" fill-opacity="1"><g transform="translate(202.446127, 231.881176)"><g><path d="M 0.671875 -4.6875 C 0.671875 -5 0.742188 -5.273438 0.890625 -5.515625 C 1.046875 -5.753906 1.257812 -5.941406 1.53125 -6.078125 C 1.800781 -6.222656 2.109375 -6.296875 2.453125 -6.296875 C 2.835938 -6.296875 3.179688 -6.222656 3.484375 -6.078125 C 3.785156 -5.941406 4.023438 -5.738281 4.203125 -5.46875 C 4.378906 -5.207031 4.46875 -4.890625 4.46875 -4.515625 C 4.46875 -4.234375 4.390625 -3.972656 4.234375 -3.734375 C 4.078125 -3.503906 3.890625 -3.296875 3.671875 -3.109375 C 3.460938 -2.929688 3.257812 -2.769531 3.0625 -2.625 L 2.171875 -1.9375 C 1.953125 -1.78125 1.765625 -1.617188 1.609375 -1.453125 C 1.460938 -1.296875 1.390625 -1.128906 1.390625 -0.953125 C 1.390625 -0.859375 1.421875 -0.796875 1.484375 -0.765625 C 1.546875 -0.742188 1.609375 -0.734375 1.671875 -0.734375 L 3.375 -0.734375 C 3.632812 -0.734375 3.8125 -0.789062 3.90625 -0.90625 C 4 -1.03125 4.0625 -1.175781 4.09375 -1.34375 L 4.1875 -1.875 L 4.390625 -1.875 L 4.25 0 L 0.75 0 C 0.75 -0.144531 0.765625 -0.320312 0.796875 -0.53125 C 0.828125 -0.738281 0.914062 -0.96875 1.0625 -1.21875 C 1.207031 -1.476562 1.445312 -1.75 1.78125 -2.03125 L 2.640625 -2.765625 C 2.910156 -2.984375 3.125 -3.234375 3.28125 -3.515625 C 3.4375 -3.796875 3.515625 -4.128906 3.515625 -4.515625 C 3.515625 -4.984375 3.398438 -5.34375 3.171875 -5.59375 C 2.941406 -5.84375 2.617188 -5.96875 2.203125 -5.96875 C 2.003906 -5.96875 1.816406 -5.921875 1.640625 -5.828125 C 1.460938 -5.742188 1.316406 -5.628906 1.203125 -5.484375 C 1.097656 -5.347656 1.046875 -5.195312 1.046875 -5.03125 C 1.046875 -4.875 1.082031 -4.765625 1.15625 -4.703125 C 1.226562 -4.640625 1.3125 -4.597656 1.40625 -4.578125 C 1.613281 -4.546875 1.757812 -4.476562 1.84375 -4.375 C 1.9375 -4.269531 1.984375 -4.15625 1.984375 -4.03125 C 1.984375 -3.925781 1.941406 -3.832031 1.859375 -3.75 C 1.785156 -3.664062 1.671875 -3.625 1.515625 -3.625 C 1.273438 -3.625 1.070312 -3.71875 0.90625 -3.90625 C 0.75 -4.101562 0.671875 -4.363281 0.671875 -4.6875 Z M 0.671875 -4.6875 "/></g></g></g><g fill="#f5f4f0" fill-opacity="1"><g transform="translate(207.666166, 231.881176)"><g><path d="M 0.78125 -1.171875 C 0.78125 -1.472656 0.851562 -1.691406 1 -1.828125 C 1.15625 -1.972656 1.320312 -2.046875 1.5 -2.046875 C 1.664062 -2.046875 1.789062 -1.992188 1.875 -1.890625 C 1.96875 -1.785156 2.015625 -1.664062 2.015625 -1.53125 C 2.015625 -1.425781 1.984375 -1.328125 1.921875 -1.234375 C 1.859375 -1.148438 1.78125 -1.085938 1.6875 -1.046875 C 1.625 -1.023438 1.5625 -0.988281 1.5 -0.9375 C 1.445312 -0.894531 1.421875 -0.832031 1.421875 -0.75 C 1.421875 -0.570312 1.488281 -0.425781 1.625 -0.3125 C 1.769531 -0.195312 2.03125 -0.140625 2.40625 -0.140625 C 2.726562 -0.140625 2.976562 -0.238281 3.15625 -0.4375 C 3.34375 -0.632812 3.472656 -0.890625 3.546875 -1.203125 C 3.628906 -1.515625 3.671875 -1.835938 3.671875 -2.171875 C 3.671875 -2.703125 3.578125 -3.117188 3.390625 -3.421875 C 3.210938 -3.734375 2.898438 -3.890625 2.453125 -3.890625 C 2.285156 -3.890625 2.132812 -3.863281 2 -3.8125 C 1.875 -3.769531 1.742188 -3.675781 1.609375 -3.53125 C 1.546875 -3.46875 1.492188 -3.382812 1.453125 -3.28125 C 1.421875 -3.1875 1.40625 -3.109375 1.40625 -3.046875 C 1.40625 -2.984375 1.390625 -2.925781 1.359375 -2.875 C 1.328125 -2.832031 1.28125 -2.8125 1.21875 -2.8125 C 1.175781 -2.8125 1.140625 -2.828125 1.109375 -2.859375 C 1.085938 -2.890625 1.078125 -2.953125 1.078125 -3.046875 L 1.078125 -6.140625 L 1.28125 -6.296875 C 1.40625 -6.191406 1.585938 -6.101562 1.828125 -6.03125 C 2.078125 -5.957031 2.304688 -5.921875 2.515625 -5.921875 C 2.773438 -5.921875 3.023438 -5.945312 3.265625 -6 C 3.503906 -6.050781 3.753906 -6.148438 4.015625 -6.296875 L 4.125 -6.171875 C 3.914062 -5.910156 3.65625 -5.6875 3.34375 -5.5 C 3.03125 -5.320312 2.691406 -5.234375 2.328125 -5.234375 C 2.097656 -5.234375 1.914062 -5.25 1.78125 -5.28125 C 1.644531 -5.3125 1.519531 -5.359375 1.40625 -5.421875 L 1.40625 -3.703125 L 1.453125 -3.6875 C 1.609375 -3.851562 1.785156 -3.984375 1.984375 -4.078125 C 2.191406 -4.171875 2.40625 -4.21875 2.625 -4.21875 C 3.0625 -4.21875 3.425781 -4.128906 3.71875 -3.953125 C 4.019531 -3.773438 4.242188 -3.53125 4.390625 -3.21875 C 4.546875 -2.914062 4.625 -2.566406 4.625 -2.171875 C 4.625 -1.722656 4.519531 -1.320312 4.3125 -0.96875 C 4.113281 -0.625 3.847656 -0.351562 3.515625 -0.15625 C 3.179688 0.0390625 2.8125 0.140625 2.40625 0.140625 C 1.894531 0.140625 1.492188 0.015625 1.203125 -0.234375 C 0.921875 -0.492188 0.78125 -0.804688 0.78125 -1.171875 Z M 0.78125 -1.171875 "/></g></g></g></svg>