<svg xmlns="http://www.w3.org/2000/svg" xmlns:xlink="http://www.w3.org/1999/xlink" width="500" zoomAndPan="magnify" viewBox="0 0 375 374.999991" height="500" preserveAspectRatio="xMidYMid meet" version="1.0"><defs><clipPath id="2154077909"><path d="M 66.015625 140.601562 L 308.835938 140.601562 L 308.835938 234.351562 L 66.015625 234.351562 Z M 66.015625 140.601562 " clip-rule="nonzero"/></clipPath></defs><g clip-path="url(#2154077909)"><path fill="#f5f4f0" d="M 88.414062 231.910156 L 99.722656 213.707031 L 112.121094 206.070312 L 119.757812 211.027344 C 120.1875 211.296875 120.738281 211.277344 121.144531 210.980469 L 132.15625 203.191406 L 152.640625 216.433594 L 152.9375 216.582031 L 153.730469 216.582031 C 154.089844 216.449219 154.363281 216.15625 154.472656 215.789062 L 166.578125 174.824219 L 178.828125 167.285156 L 188.597656 172.742188 C 189.105469 173.03125 189.746094 172.925781 190.132812 172.492188 L 194.449219 167.730469 L 238.835938 223.179688 L 239.035156 223.378906 L 239.136719 223.378906 L 239.332031 223.476562 L 240.027344 223.476562 C 240.460938 223.398438 240.820312 223.097656 240.96875 222.683594 L 247.070312 205.324219 L 257.136719 199.273438 L 265.519531 203.886719 C 266.0625 204.183594 266.738281 204.035156 267.105469 203.539062 L 269.835938 200.117188 L 304.550781 231.910156 Z M 93.96875 209.492188 L 96.300781 211.96875 L 97.242188 213.011719 L 85.535156 231.910156 L 70.363281 231.910156 Z M 107.160156 196.992188 L 98.628906 210.78125 L 95.804688 207.804688 Z M 102.648438 208.996094 L 113.609375 191.242188 L 127.992188 200.515625 L 129.875 201.753906 L 120.402344 208.5 L 112.8125 203.589844 C 112.40625 203.328125 111.882812 203.328125 111.476562 203.589844 Z M 98.828125 214.054688 Z M 98.828125 214.054688 Z M 130.472656 199.175781 L 155.816406 167.535156 L 164.046875 174.378906 L 152.492188 213.410156 L 132.703125 200.613281 Z M 172.132812 147.25 L 170.492188 152.804688 L 164.890625 171.796875 L 164.445312 171.402344 L 157.449219 165.597656 Z M 175.601562 144.175781 L 192.863281 165.746094 L 188.941406 170.0625 L 179.421875 164.707031 C 179.03125 164.5 178.558594 164.519531 178.179688 164.757812 L 167.617188 171.253906 Z M 230.007812 208.152344 L 238.6875 199.621094 L 244.589844 204.980469 L 239.332031 219.855469 Z M 250.542969 188.066406 L 245.480469 202.449219 L 240.472656 197.9375 Z M 256.445312 196.894531 L 248.359375 201.804688 L 254.0625 185.683594 L 268.046875 198.480469 L 265.816406 201.359375 L 257.734375 196.894531 C 257.335938 196.652344 256.839844 196.652344 256.445312 196.894531 Z M 308.617188 232.257812 L 270.527344 197.390625 L 254.308594 182.5625 L 254.160156 182.414062 L 254.0625 182.414062 L 253.816406 182.3125 L 253.167969 182.3125 L 252.921875 182.414062 L 252.871094 182.414062 L 252.671875 182.5625 L 252.625 182.5625 L 228.421875 206.21875 L 195.441406 165.054688 L 176.046875 140.800781 L 175.851562 140.601562 L 174.859375 140.601562 L 174.558594 140.703125 L 174.511719 140.703125 L 174.265625 140.851562 L 174.164062 140.949219 L 154.722656 165.203125 L 128.4375 198.035156 L 113.957031 188.660156 L 112.667969 188.660156 L 112.519531 188.761719 L 112.367188 188.761719 L 93.175781 206.8125 L 66.394531 232.257812 C 65.898438 232.730469 65.886719 233.515625 66.359375 234.007812 C 66.589844 234.246094 66.90625 234.382812 67.238281 234.390625 L 307.773438 234.390625 C 308.460938 234.378906 309.007812 233.816406 308.996094 233.132812 C 308.992188 232.800781 308.855469 232.484375 308.617188 232.257812 " fill-opacity="1" fill-rule="nonzero"/></g></svg>